<svg width="226" height="199" viewBox="0 0 226 199" fill="none" xmlns="http://www.w3.org/2000/svg">
<path d="M13.6193 128.648C11.1849 127.967 8.91443 126.799 6.94592 125.213C4.97741 123.628 3.35202 121.658 2.16862 119.425C0.985228 117.191 0.268561 114.74 0.0622174 112.221C-0.144126 109.702 0.164166 107.167 0.968341 104.771C2.2228 101.05 4.63073 97.7594 5.66194 93.9694C6.83667 89.6638 6.14034 85.0925 5.41211 80.6806C4.68389 76.2687 3.95034 71.724 5.05066 67.3918C6.15097 63.0597 9.61137 59.0039 14.087 58.7009C18.1959 58.4299 22.0072 61.5128 23.7347 65.2337C25.4622 68.9546 25.4676 73.3133 25.0636 77.4594C24.6596 81.6055 23.8782 85.6931 24.1227 89.8233C24.6224 98.1899 29.3107 106.062 28.7579 114.424C28.4708 118.777 26.7858 121.562 23.9048 124.837C21.4171 127.664 17.2817 129.52 13.6193 128.653" fill="#F5F5F5"/>
<path d="M14.4113 149.463C14.3475 149.463 14.2996 134.367 14.2996 115.747C14.2996 97.1268 14.3475 82.0255 14.4113 82.0255C14.475 82.0255 14.5282 97.1268 14.5282 115.731C14.5282 134.335 14.475 149.463 14.4113 149.463Z" fill="white"/>
<path d="M21.9061 108.762C21.9433 108.81 20.3114 110.155 18.249 111.76C16.1866 113.366 14.4963 114.625 14.4591 114.578C14.4219 114.53 16.0537 113.185 18.1108 111.58C20.1679 109.974 21.8636 108.715 21.9061 108.762Z" fill="white"/>
<path d="M14.4166 107.79C13.6117 107.369 12.842 106.883 12.115 106.339C11.3449 105.854 10.6175 105.304 9.94092 104.696C10.7469 105.122 11.5167 105.612 12.2425 106.163C13.0114 106.644 13.7386 107.188 14.4166 107.79Z" fill="white"/>
<path d="M170.446 102.509C172.017 95.8516 167.894 89.1811 161.237 87.6098C154.58 86.0386 147.909 90.1616 146.338 96.8188C144.767 103.476 148.89 110.147 155.547 111.718C162.204 113.289 168.875 109.166 170.446 102.509Z" fill="#F5F5F5"/>
<path d="M158.722 127.425C158.711 127.332 158.711 127.237 158.722 127.144C158.722 126.926 158.722 126.66 158.696 126.336C158.696 125.591 158.664 124.581 158.643 123.354C158.605 120.802 158.547 117.342 158.488 113.52C158.43 109.698 158.403 106.2 158.419 103.686C158.419 102.426 158.419 101.406 158.451 100.704C158.451 100.38 158.451 100.109 158.478 99.8962C158.475 99.7998 158.484 99.7035 158.504 99.6092C158.528 99.7029 158.537 99.7997 158.531 99.8962C158.531 100.109 158.531 100.38 158.557 100.704C158.557 101.448 158.589 102.458 158.611 103.686C158.653 106.238 158.706 109.698 158.765 113.52C158.823 117.342 158.855 120.834 158.839 123.354C158.839 124.613 158.839 125.629 158.802 126.336C158.802 126.66 158.802 126.926 158.775 127.144C158.773 127.24 158.755 127.335 158.722 127.425Z" fill="white"/>
<path d="M163.139 101.183C161.751 103.007 160.217 104.715 158.552 106.291C159.941 104.467 161.475 102.758 163.139 101.183Z" fill="white"/>
<path d="M206.557 77.2999L197.451 95.665L200.167 95.7713L192.455 110.368H196.505L190.185 123.332H225.517L217.74 110.368L221.467 110.203L214.009 95.6172L216.768 95.4524L206.557 77.2999Z" fill="#F5F5F5"/>
<path d="M206.902 98.5407C206.977 98.5407 206.902 108.077 206.785 119.835C206.668 131.593 206.466 141.134 206.392 141.134C206.317 141.134 206.365 131.598 206.509 119.835C206.652 108.071 206.822 98.5407 206.902 98.5407Z" fill="white"/>
<path d="M212.154 104.037C210.491 105.658 208.701 107.142 206.801 108.475C208.467 106.859 210.257 105.375 212.154 104.037Z" fill="white"/>
<path d="M63.0269 34.324L46.3681 67.9234L51.3434 68.1094L37.2307 94.8093H44.6405L33.0793 118.532H97.716L83.4863 94.8093L90.3061 94.5169L76.6665 67.8277L81.7056 67.53L63.0269 34.324Z" fill="#7536C6"/>
<path d="M65.8441 73.2973C65.9185 73.2973 65.7963 88.6433 65.573 107.566C65.3498 126.49 65.1 141.83 65.0415 141.83C64.983 141.83 65.084 126.49 65.3126 107.561C65.5411 88.6326 65.7644 73.2973 65.8441 73.2973Z" fill="white"/>
<path d="M65.504 104.079C65.135 103.955 64.779 103.795 64.4409 103.601L61.8842 102.336L59.3168 101.097C58.9441 100.949 58.5878 100.762 58.2537 100.539C58.642 100.617 59.0189 100.744 59.3752 100.917C60.0556 101.193 60.9699 101.597 61.9852 102.086C63.0004 102.575 63.8828 103.059 64.5153 103.426C64.872 103.6 65.2043 103.819 65.504 104.079Z" fill="white"/>
<path d="M73.4878 78.7564C73.4292 78.9183 73.3468 79.0706 73.2433 79.2082C73.0732 79.4846 72.8128 79.8833 72.4832 80.367C71.8294 81.3344 70.8885 82.6527 69.7936 84.0878C68.6986 85.523 67.6673 86.7456 66.8966 87.6333C66.5139 88.0745 66.195 88.4253 65.9664 88.6592C65.7378 88.8931 65.6102 89.026 65.5943 89.01C65.9466 88.4847 66.3319 87.9823 66.7478 87.5057C67.476 86.5914 68.4859 85.3317 69.5756 83.9177C70.6653 82.5038 71.6274 81.2121 72.3237 80.2766C72.6778 79.7447 73.0667 79.2369 73.4878 78.7564Z" fill="white"/>
<path d="M175.673 99.4975C186.682 99.4975 195.606 90.5731 195.606 79.5644C195.606 68.5556 186.682 59.6312 175.673 59.6312C164.665 59.6312 155.74 68.5556 155.74 79.5644C155.74 90.5731 164.665 99.4975 175.673 99.4975Z" fill="#7536C6"/>
<path d="M175.806 126.437C175.727 126.437 175.668 115.912 175.668 102.937C175.668 89.9615 175.727 79.4315 175.806 79.4315C175.886 79.4315 175.945 89.9509 175.945 102.937C175.945 115.922 175.881 126.437 175.806 126.437Z" fill="white"/>
<path d="M183.312 81.9935C183.37 82.0414 181.76 83.9284 179.718 86.1981C177.677 88.4678 175.998 90.2698 175.923 90.222C177.049 88.759 178.249 87.354 179.516 86.0121C180.712 84.6083 181.978 83.267 183.312 81.9935Z" fill="white"/>
<path d="M31.5963 73.6482L21.1832 94.6498L24.2928 94.7667L15.4743 111.457H20.1041L12.8804 126.282H53.2783L44.3854 111.457L48.6431 111.271L40.1224 94.5913L43.2692 94.4053L31.5963 73.6482Z" fill="#FFC100"/>
<path d="M33.3558 98.0092C33.4302 98.0092 33.3558 106.907 33.2016 117.873C33.0475 128.839 32.8508 137.732 32.7764 137.732C32.702 137.732 32.7764 128.839 32.9252 117.868C33.0741 106.897 33.2814 98.0092 33.3558 98.0092Z" fill="white"/>
<path d="M38.3098 103.41C37.6188 104.525 36.8515 105.59 36.0135 106.599C35.2484 107.669 34.4082 108.683 33.4992 109.634C34.1896 108.519 34.9569 107.453 35.7955 106.445C36.5594 105.374 37.3996 104.36 38.3098 103.41Z" fill="white"/>
<path d="M33.2601 109.198C32.4387 108.732 31.6644 108.187 30.9478 107.572C30.1791 107.03 29.4668 106.412 28.8216 105.727C29.6408 106.195 30.4133 106.739 31.1286 107.354C31.8969 107.898 32.6107 108.516 33.2601 109.198Z" fill="white"/>
<path d="M32.9838 119.5C32.0868 118.855 31.2245 118.163 30.4004 117.427C28.9865 116.273 27.8065 115.38 27.849 115.301C28.83 115.823 29.7454 116.46 30.5758 117.198C31.4646 117.87 32.2726 118.642 32.9838 119.5Z" fill="white"/>
<path d="M38.7403 113.132C37.9745 114.302 37.1328 115.421 36.2208 116.481C35.3833 117.604 34.4705 118.67 33.4886 119.67C34.2545 118.5 35.0961 117.381 36.0082 116.321C36.8455 115.197 37.7583 114.132 38.7403 113.132Z" fill="white"/>
<path d="M116.427 32.3626C116.829 32.1894 117.171 31.9023 117.412 31.5368C117.653 31.1712 117.782 30.7432 117.782 30.3055C117.835 30.0025 117.821 29.6918 117.742 29.3947C117.662 29.0977 117.52 28.8213 117.323 28.5847C117.127 28.3481 116.882 28.1569 116.604 28.0242C116.327 27.8916 116.024 27.8207 115.717 27.8164C115.409 27.8121 115.105 27.8746 114.824 27.9995C114.543 28.1243 114.292 28.3086 114.089 28.5397C113.887 28.7707 113.736 29.043 113.649 29.3378C113.561 29.6325 113.539 29.9427 113.583 30.247C113.566 30.6924 113.682 31.1327 113.917 31.5115C114.152 31.8903 114.495 32.1904 114.901 32.3732C111.669 32.8304 111.786 36.3386 111.786 36.3386L119.419 36.4396C119.419 36.4396 119.627 32.8729 116.427 32.3626Z" fill="white"/>
<path d="M160.705 43.2647C160.707 43.6636 160.591 44.0541 160.371 44.3868C160.15 44.7195 159.837 44.9794 159.469 45.1335C159.101 45.2876 158.695 45.329 158.304 45.2525C157.912 45.176 157.552 44.9849 157.27 44.7036C156.987 44.4223 156.794 44.0634 156.715 43.6723C156.637 43.2812 156.676 42.8756 156.828 42.5069C156.98 42.1381 157.238 41.8229 157.57 41.601C157.901 41.3792 158.291 41.2607 158.69 41.2607C159.223 41.2607 159.734 41.4715 160.111 41.847C160.489 42.2226 160.702 42.7322 160.705 43.2647Z" fill="white"/>
<path d="M164.32 41.2501C165.429 41.2501 166.329 40.3505 166.329 39.2408C166.329 38.1311 165.429 37.2316 164.32 37.2316C163.21 37.2316 162.31 38.1311 162.31 39.2408C162.31 40.3505 163.21 41.2501 164.32 41.2501Z" fill="white"/>
<path d="M166.345 47.7616C166.313 48.1527 166.167 48.526 165.927 48.8359C165.686 49.1459 165.36 49.3789 164.989 49.5067C164.618 49.6345 164.218 49.6514 163.837 49.5554C163.457 49.4594 163.113 49.2546 162.847 48.9662C162.581 48.6777 162.404 48.3179 162.339 47.9309C162.275 47.5439 162.324 47.1464 162.481 46.7869C162.639 46.4274 162.897 46.1215 163.226 45.9067C163.554 45.6918 163.938 45.5772 164.33 45.577C164.885 45.6059 165.406 45.8506 165.782 46.2589C166.159 46.6672 166.361 47.2065 166.345 47.7616Z" fill="white"/>
<path d="M163.74 47.5065C163.655 47.634 162.316 46.8739 160.753 45.8108C159.19 44.7477 157.989 43.7803 158.095 43.6527C158.201 43.5251 159.514 44.2906 161.082 45.3537C162.65 46.4168 163.825 47.3789 163.74 47.5065Z" fill="white"/>
<path d="M163.894 39.0973C163.99 39.2196 162.953 40.1604 161.587 41.2235C160.221 42.2866 159.036 43.0468 158.93 42.9245C158.823 42.8022 159.865 41.8614 161.231 40.7983C162.597 39.7352 163.809 38.9804 163.894 39.0973Z" fill="white"/>
<path d="M177.911 10.5424C177.859 10.3321 177.834 10.1159 177.837 9.8992C177.827 9.64231 177.799 9.38647 177.752 9.13376C177.708 8.7841 177.64 8.4378 177.55 8.09724C177.327 7.16402 176.969 6.26853 176.487 5.43948C175.846 4.34059 174.999 3.37515 173.994 2.59568C172.792 1.64205 171.382 0.984687 169.879 0.676774C168.159 0.323532 166.376 0.43546 164.713 1.00102C163.815 1.29425 162.968 1.72651 162.204 2.28206C161.803 2.56112 161.423 2.86843 161.066 3.20165C160.715 3.55051 160.387 3.92159 160.083 4.31259C158.807 5.96095 158.092 7.9739 158.041 10.0576C157.991 12.1413 158.607 14.1867 159.801 15.8951C160.085 16.302 160.395 16.6891 160.731 17.0539C161.071 17.4032 161.436 17.7283 161.821 18.0266C162.558 18.6194 163.383 19.093 164.266 19.4299C165.795 20.0361 167.452 20.2491 169.084 20.0494C170.717 19.8498 172.273 19.2438 173.611 18.2871C174.645 17.5533 175.531 16.6298 176.221 15.5655C176.748 14.7615 177.153 13.8838 177.422 12.9609C177.527 12.6264 177.61 12.2855 177.672 11.9404C177.73 11.6882 177.77 11.4325 177.794 11.1749C177.802 10.9604 177.838 10.7478 177.901 10.5424C177.924 10.7561 177.924 10.9718 177.901 11.1855C177.9 11.4475 177.877 11.7089 177.831 11.9669C177.789 12.3259 177.719 12.6813 177.624 13.03C177.384 13.9877 176.997 14.9023 176.476 15.7409C175.716 16.9829 174.698 18.0474 173.491 18.8626C172.284 19.6778 170.917 20.2247 169.481 20.4664C167.664 20.7787 165.796 20.5951 164.075 19.9349C163.147 19.5759 162.28 19.0776 161.502 18.4572C161.098 18.1416 160.715 17.8007 160.354 17.4366C159.997 17.0517 159.667 16.6433 159.365 16.214C158.099 14.4132 157.444 12.2532 157.497 10.0521C157.551 7.851 158.31 5.72534 159.663 3.98834C159.989 3.57359 160.344 3.18278 160.726 2.81893C161.102 2.46975 161.502 2.14653 161.922 1.8515C162.735 1.27468 163.631 0.826466 164.58 0.522623C166.331 -0.0576489 168.205 -0.156784 170.007 0.235587C171.43 0.546706 172.77 1.15939 173.937 2.03233C175.103 2.90527 176.069 4.01816 176.768 5.29596C177.247 6.15717 177.588 7.08803 177.778 8.05471C177.859 8.4044 177.912 8.75984 177.938 9.11781C177.971 9.3769 177.981 9.6383 177.97 9.8992C177.973 10.115 177.953 10.3306 177.911 10.5424Z" fill="white"/>
<path d="M175.897 4.2488C175.897 4.2807 175.737 4.44017 175.365 4.70063L174.738 5.16839C174.61 5.25875 174.472 5.35443 174.323 5.45011L173.829 5.71057C172.028 6.73704 169.98 7.2517 167.907 7.19892L167.014 7.16171L166.153 7.02882C166.01 7.02882 165.872 6.9863 165.733 6.9544L165.335 6.8481C165.069 6.77368 164.803 6.71521 164.559 6.63547C163.682 6.33882 162.839 5.95041 162.044 5.47669C160.7 4.66342 160.04 3.91925 160.094 3.88204C160.147 3.84483 160.88 4.41359 162.22 5.14713C163.013 5.55554 163.84 5.8935 164.692 6.15708C164.931 6.22618 165.181 6.27933 165.436 6.34844L165.824 6.44412L166.222 6.50259L167.046 6.62484L167.897 6.65674C169.885 6.70076 171.853 6.25921 173.632 5.37038L174.132 5.15244C174.286 5.07271 174.424 4.98766 174.557 4.91324L175.243 4.53584C175.647 4.31791 175.87 4.21691 175.897 4.2488Z" fill="white"/>
<path d="M159.785 16.4904C159.785 16.4904 159.945 16.3044 160.317 16.0439L160.965 15.5762C161.093 15.4911 161.226 15.3901 161.375 15.2944L161.874 15.0393C163.673 14.0109 165.719 13.4943 167.79 13.5456L168.689 13.5881L169.55 13.721L169.965 13.7901L170.368 13.8964C170.634 13.9709 170.9 14.0347 171.145 14.1144C172.012 14.4107 172.846 14.7973 173.632 15.2678C174.982 16.0864 175.641 16.8306 175.588 16.8625C175.535 16.8944 174.802 16.2991 173.462 15.5974C172.67 15.1871 171.843 14.8473 170.99 14.5821C170.751 14.513 170.496 14.4599 170.241 14.3961L169.858 14.3004L169.454 14.242L168.636 14.1197L167.78 14.0825C165.794 14.0415 163.828 14.4829 162.05 15.3688L161.545 15.5868C161.396 15.6665 161.252 15.7569 161.119 15.826L160.434 16.2087C160.03 16.4266 159.807 16.5223 159.785 16.4904Z" fill="white"/>
<path d="M177.901 10.7763C177.901 10.9251 173.388 10.941 167.801 10.8082C162.215 10.6753 157.739 10.4361 157.744 10.2766C157.75 10.1171 162.257 10.1065 167.817 10.2447C173.377 10.3829 177.906 10.6221 177.901 10.7763Z" fill="white"/>
<path d="M167.371 20.3548C167.216 20.3548 167.206 15.8419 167.339 10.2819C167.472 4.72187 167.705 0.224945 167.87 0.224945C168.035 0.224945 168.04 4.73782 167.902 10.3244C167.764 15.911 167.525 20.3601 167.371 20.3548Z" fill="white"/>
<path d="M167.371 20.3389C167.333 20.3974 166.222 19.6479 164.947 17.9416C164.197 16.9408 163.591 15.8406 163.145 14.6726C162.601 13.233 162.336 11.7034 162.363 10.165C162.398 8.62523 162.738 7.10763 163.363 5.69996C163.872 4.56153 164.534 3.49756 165.329 2.53723C166.685 0.894736 167.801 0.171824 167.838 0.230295C167.875 0.288765 166.881 1.11799 165.638 2.77643C164.911 3.74317 164.304 4.79445 163.83 5.90727C163.254 7.25301 162.938 8.69608 162.9 10.1597C162.874 11.6305 163.112 13.0942 163.602 14.4812C164.013 15.6191 164.565 16.7012 165.244 17.7024C166.43 19.4299 167.429 20.2804 167.371 20.3389Z" fill="white"/>
<path d="M168.088 0.230278C168.125 0.171808 169.231 0.921297 170.512 2.62758C171.26 3.62766 171.866 4.72588 172.314 5.8913C172.858 7.33248 173.121 8.8642 173.09 10.4042C173.054 11.9455 172.709 13.4639 172.075 14.8692C171.565 16.0156 170.904 17.0883 170.108 18.0585C168.753 19.6957 167.636 20.4239 167.599 20.3655C167.562 20.307 168.556 19.4778 169.8 17.8193C170.527 16.8526 171.133 15.8013 171.607 14.6885C172.183 13.3425 172.499 11.8996 172.537 10.4361C172.564 8.96348 172.326 7.49807 171.836 6.10924C171.424 4.98162 170.872 3.91015 170.193 2.91993C169.029 1.13391 168.03 0.288749 168.088 0.230278Z" fill="white"/>
<path d="M194.363 51.323H219.436C219.436 51.323 219.436 45.5823 216.475 45.5823C215.415 45.5469 214.376 45.8828 213.538 46.5321C212.699 47.1814 212.114 48.1033 211.883 49.1383C211.883 49.1383 211.883 38.4276 206.493 39.9957C201.39 41.484 200.811 48.341 200.811 48.341C200.811 48.341 199.896 44.8966 197.132 46.8367C194.368 48.7769 194.363 51.323 194.363 51.323Z" fill="#7536C6"/>
<path d="M21.9061 19.4884H59.4283C59.4283 19.4884 59.4283 10.8985 55.0005 10.8985C53.414 10.8458 51.8588 11.3477 50.6024 12.3179C49.346 13.2881 48.4671 14.6658 48.1169 16.2141C48.1169 16.2141 48.1169 0.182456 40.0532 2.53191C32.4148 4.75912 31.5484 15.0234 31.5484 15.0234C31.5484 15.0234 30.177 9.86201 26.0362 12.7696C21.8954 15.6772 21.9061 19.4884 21.9061 19.4884Z" fill="#7536C6"/>
<path d="M213.562 147.257C213.562 147.257 213.419 147.114 213.153 146.827L211.978 145.541C210.915 144.451 209.352 142.814 207.152 140.916C204.485 138.607 201.629 136.525 198.615 134.692C196.738 133.541 194.798 132.496 192.805 131.561C185.435 128.077 177.404 126.21 169.252 126.086C162.745 125.992 156.276 127.089 150.164 129.323C143.695 131.641 137.625 135.659 131.47 139.895C128.392 142.022 125.282 144.212 122.008 146.274C118.707 148.399 115.213 150.209 111.574 151.68C107.916 153.148 104.031 153.964 100.092 154.093C96.2688 154.165 92.4577 153.64 88.7966 152.536C85.2777 151.463 81.8433 150.13 78.5217 148.549C75.258 147.034 72.1431 145.429 69.0388 143.909C62.8941 140.879 56.8769 138.21 50.8757 137.025C50.1315 136.871 49.382 136.765 48.6432 136.642L47.5376 136.51C47.1712 136.457 46.802 136.425 46.4319 136.414L44.2526 136.297C43.5297 136.297 42.8174 136.329 42.1264 136.339C41.7755 136.339 41.4194 136.339 41.0633 136.382L40.0002 136.488C39.3145 136.573 38.6288 136.6 37.959 136.727L35.9816 137.084C35.3225 137.185 34.6953 137.387 34.0681 137.535C29.5411 138.705 25.2017 140.507 21.1779 142.888C18.1287 144.661 15.2165 146.66 12.4658 148.868C10.212 150.697 8.53763 152.212 7.42668 153.259L6.16691 154.46L5.73103 154.864C5.73103 154.864 5.86924 154.715 6.14564 154.439L7.38416 153.216C8.48979 152.153 10.1535 150.633 12.3967 148.783C15.1439 146.557 18.0543 144.54 21.1035 142.75C25.1335 140.35 29.4819 138.53 34.0202 137.344C34.6528 137.195 35.28 136.993 35.9391 136.887L37.9324 136.525C38.6022 136.398 39.2932 136.366 39.9842 136.281L41.0473 136.169C41.3981 136.137 41.7543 136.143 42.1104 136.127C42.8227 136.127 43.5403 136.068 44.2685 136.079L46.4638 136.191C46.8339 136.201 47.203 136.233 47.5695 136.286L48.6857 136.419C49.4299 136.541 50.1847 136.642 50.9342 136.802C56.9673 137.987 63.011 140.656 69.1664 143.68C72.2494 145.195 75.3856 146.795 78.644 148.31C81.9535 149.884 85.3755 151.209 88.8817 152.275C92.521 153.369 96.3085 153.889 100.108 153.817C104.015 153.685 107.87 152.874 111.499 151.42C115.128 149.952 118.61 148.148 121.902 146.03C125.171 143.983 128.28 141.777 131.358 139.651C137.492 135.399 143.584 131.385 150.1 129.062C156.241 126.825 162.739 125.732 169.273 125.836C177.455 125.973 185.512 127.863 192.901 131.38C194.897 132.323 196.838 133.377 198.716 134.537C201.724 136.385 204.569 138.485 207.221 140.815C209.416 142.723 210.942 144.376 212.005 145.482L213.158 146.784C213.435 147.093 213.562 147.257 213.562 147.257Z" fill="white"/>
<path d="M217.113 198.754H216.39H214.264L206.041 198.781L175.588 198.829H175.445L175.498 198.696C175.498 198.632 175.546 198.557 175.578 198.483C175.865 196.793 176.184 194.916 176.508 192.987L176.673 193.093L172.447 196.091L172.277 196.208V196.001C172.277 191.573 172.277 186.901 172.277 182.026L172.511 182.058L168.056 197.696L167.976 197.973L167.828 197.728L163.836 191.35L164.069 191.265C164.357 193.593 164.67 196.144 164.984 198.706V198.855H164.83C152.009 198.797 138.077 198.855 123.634 198.829H80.0471H60.3319H43.4711L42.408 198.77H42.3229V198.685C42.0465 196.984 41.7914 195.389 41.5362 193.827L41.7276 193.875L39.7555 196.607L39.6439 196.756L39.5695 196.591C38.4267 193.997 37.3423 191.552 36.3058 189.202L36.4918 189.165C36.4174 191.956 36.3536 194.528 36.2898 196.979V197.144L36.1569 197.048L31.5484 193.912L31.6706 193.811L33.7968 198.722L33.8447 198.829H33.7224C26.5252 198.759 20.8536 198.791 16.9839 198.765H12.5614H11.4292H11.0464H11.4292H12.5614H16.9839C20.8536 198.765 26.5518 198.712 33.7331 198.765L33.6586 198.871C33.0048 197.372 32.3191 195.799 31.5324 193.97L31.4155 193.704L31.6547 193.869L36.2686 196.989L36.125 197.064C36.1835 194.613 36.2473 192.041 36.3111 189.25V188.814L36.4865 189.213C37.5496 191.557 38.6127 193.997 39.7662 196.591H39.5854L41.5575 193.859L41.7116 193.646L41.7542 193.901C42.0093 195.469 42.2857 197.059 42.5462 198.759L42.4452 198.664L43.5083 198.722H60.3532H80.0684H123.656C138.103 198.722 152.03 198.696 164.856 198.759L164.723 198.908C164.41 196.325 164.096 193.774 163.814 191.467L163.745 190.887L164.054 191.382L168.04 197.76L167.812 197.792C169.369 192.36 170.863 187.124 172.282 182.159L172.516 181.351V182.191C172.516 187.065 172.516 191.759 172.516 196.166L172.346 196.075L176.598 193.088L176.805 192.944L176.763 193.189C176.433 195.113 176.109 196.989 175.817 198.685L175.737 198.898L175.588 198.653L206.041 198.696L214.264 198.722H216.39C216.868 198.744 217.113 198.754 217.113 198.754Z" fill="white"/>
<path d="M195.149 189.617C192.779 188.341 191.822 186.539 191.264 183.903C190.993 182.579 191.009 181.212 191.312 179.896C191.615 178.579 192.196 177.342 193.018 176.27C194.389 174.494 196.42 173.202 197.361 171.161C198.365 168.987 198.004 166.229 199.529 164.389C200.592 163.124 202.278 162.619 203.622 161.673C204.717 160.902 205.573 159.839 206.551 158.925C207.529 158.011 208.731 157.203 210.07 157.15C212.09 157.07 213.881 158.856 214.206 160.87C214.53 162.885 213.637 164.921 212.249 166.399C211.25 167.462 209.964 168.349 209.379 169.7C208.284 172.23 210.097 175.361 208.895 177.843C208.018 179.656 205.679 180.745 205.568 182.754C205.62 183.492 205.73 184.224 205.897 184.944C206.147 187.251 204.207 189.351 201.99 190.021C199.774 190.691 197.382 190.249 195.149 189.633" fill="#FFC100"/>
<path d="M206.658 165.697C206.6 165.804 206.531 165.904 206.45 165.995C206.286 166.207 206.068 166.473 205.807 166.813C205.547 167.153 205.175 167.589 204.808 168.116C204.441 168.642 203.989 169.211 203.564 169.896L202.868 170.959C202.628 171.326 202.411 171.73 202.171 172.134C201.672 172.942 201.22 173.846 200.731 174.792C199.714 176.864 198.845 179.007 198.132 181.202C197.444 183.406 196.911 185.654 196.537 187.932C196.393 188.995 196.239 189.989 196.181 190.935C196.149 191.403 196.096 191.86 196.074 192.301C196.053 192.742 196.048 193.157 196.032 193.561C195.984 194.364 196.032 195.092 196.032 195.735C196.032 196.378 196.058 196.926 196.09 197.372C196.122 197.819 196.133 198.148 196.149 198.409C196.156 198.531 196.156 198.653 196.149 198.775C196.115 198.658 196.095 198.536 196.09 198.414C196.064 198.154 196.027 197.808 195.984 197.383C195.942 196.958 195.888 196.383 195.878 195.74C195.867 195.097 195.809 194.364 195.841 193.556C195.841 193.152 195.841 192.726 195.867 192.291C195.894 191.855 195.931 191.392 195.957 190.914C196.011 189.962 196.154 188.958 196.287 187.895C196.647 185.598 197.176 183.331 197.871 181.112C198.586 178.904 199.466 176.752 200.502 174.675C201.002 173.729 201.464 172.825 201.969 172.017C202.219 171.613 202.442 171.209 202.687 170.842L203.399 169.779C203.84 169.099 204.303 168.53 204.686 168.02C205.068 167.51 205.424 167.079 205.722 166.739L206.408 165.952C206.483 165.859 206.566 165.774 206.658 165.697Z" fill="white"/>
<path d="M48.9941 174.84C49.6322 174.889 50.2536 175.067 50.8209 175.363C51.3883 175.659 51.8897 176.067 52.2951 176.562C53.1025 177.559 53.6699 178.728 53.9535 179.98C54.5754 182.372 54.1555 185.184 53.4539 187.554C50.8811 186.608 49.3078 183.834 48.6008 182.382C47.4845 180.086 46.8573 175.249 48.9941 174.84Z" fill="#FFC100"/>
<path d="M57.148 190.478C56.7664 189.873 56.5512 189.178 56.5242 188.463C56.4971 187.748 56.6591 187.038 56.9939 186.406C57.3384 185.783 57.8026 185.234 58.36 184.79C58.9173 184.347 59.5568 184.018 60.2416 183.823C60.5487 183.702 60.8785 183.649 61.2081 183.668C61.5377 183.687 61.8591 183.778 62.1499 183.935C62.395 184.123 62.5849 184.374 62.6999 184.661C62.8149 184.948 62.8508 185.261 62.8037 185.566C62.7018 186.177 62.4415 186.751 62.0489 187.23C60.7785 188.92 59.237 190.324 57.1267 190.478" fill="#FFC100"/>
<path d="M57.1692 198.685C57.1053 198.523 57.0625 198.353 57.0416 198.18C56.9778 197.856 56.8981 197.377 56.8131 196.787C56.5625 195.246 56.5214 193.678 56.6908 192.126C56.8734 190.555 57.4777 189.064 58.4396 187.81C58.7354 187.437 59.0765 187.103 59.4549 186.816C59.587 186.7 59.738 186.608 59.9014 186.544C59.4301 186.972 58.9929 187.436 58.5938 187.932C57.7023 189.19 57.1428 190.652 56.9672 192.184C56.8028 193.715 56.8152 195.26 57.0044 196.787C57.0987 197.416 57.1537 198.05 57.1692 198.685Z" fill="white"/>
<path d="M49.7967 178.454C49.9479 178.699 50.0761 178.957 50.1794 179.225C50.408 179.725 50.711 180.453 51.1149 181.351C51.8857 183.158 52.9063 185.678 53.9694 188.49C55.0325 191.302 55.9308 193.869 56.5527 195.735C56.861 196.671 57.0843 197.431 57.265 197.957C57.3636 198.224 57.4366 198.5 57.4829 198.781C57.3539 198.526 57.2455 198.261 57.1587 197.989L56.3667 195.799C55.7022 193.949 54.772 191.392 53.7089 188.586C52.6458 185.779 51.6518 183.27 50.9289 181.42C50.5781 180.543 50.291 179.826 50.0731 179.257C49.9599 178.997 49.8675 178.729 49.7967 178.454Z" fill="white"/>
<path d="M54.469 192.806C53.6174 191.56 52.4814 190.535 51.1551 189.815C49.8287 189.095 48.35 188.701 46.8412 188.665C46.0758 188.665 45.1668 188.841 44.8692 189.542C44.5715 190.244 45.0712 191.036 45.624 191.568C46.7966 192.658 48.2661 193.377 49.8469 193.633C51.4276 193.89 53.049 193.672 54.5062 193.008" fill="#FFC100"/>
<path d="M48.1594 190.568C48.325 190.543 48.4935 190.543 48.6591 190.568C48.852 190.579 49.0439 190.604 49.2332 190.643C49.4895 190.678 49.7434 190.73 49.9933 190.797C50.6459 190.962 51.2799 191.194 51.8856 191.488C52.6242 191.853 53.3226 192.295 53.9693 192.806C54.6047 193.335 55.1837 193.928 55.6968 194.576C56.1072 195.112 56.4633 195.687 56.7599 196.293C56.8781 196.522 56.9811 196.758 57.0682 197C57.1449 197.172 57.2072 197.35 57.2543 197.532C57.3137 197.687 57.3513 197.85 57.3659 198.015C57.3127 198.015 57.1161 197.351 56.5845 196.357C56.2697 195.779 55.9051 195.229 55.4948 194.714C54.4865 193.45 53.2173 192.419 51.774 191.69C51.1858 191.393 50.572 191.149 49.9401 190.962C48.8611 190.68 48.1541 190.621 48.1594 190.568Z" fill="white"/>
<path d="M126.191 32.0117L162.337 31.9586C162.337 31.9586 164.038 18.1382 152.625 19.3076C152.625 19.3076 150.058 10.0321 141.356 11.834C132.655 13.636 132.32 22.9169 132.32 22.9169C132.32 22.9169 125.713 23.964 126.191 32.0117Z" fill="#FFC100"/>
<path d="M145.12 27.4404C145.121 27.6035 145.073 27.7634 144.984 27.8995C144.894 28.0357 144.765 28.1422 144.615 28.2053C144.464 28.2685 144.299 28.2856 144.138 28.2544C143.978 28.2232 143.831 28.1452 143.715 28.0302C143.599 27.9151 143.52 27.7684 143.488 27.6084C143.456 27.4484 143.472 27.2825 143.534 27.1316C143.596 26.9808 143.702 26.8518 143.838 26.761C143.973 26.6702 144.133 26.6218 144.296 26.6218C144.404 26.6211 144.511 26.6417 144.611 26.6826C144.711 26.7234 144.802 26.7836 144.878 26.8597C144.955 26.9357 145.015 27.0262 145.057 27.1259C145.098 27.2255 145.12 27.3324 145.12 27.4404Z" fill="white"/>
<path d="M142.632 26.3986C142.841 26.1709 143.094 25.9879 143.376 25.8609C143.658 25.7338 143.962 25.6652 144.272 25.6592C144.581 25.6533 144.888 25.7101 145.174 25.8262C145.461 25.9423 145.721 26.1153 145.938 26.3348C146.026 26.418 146.142 26.4638 146.263 26.4623C146.384 26.4608 146.499 26.4122 146.584 26.3269C146.67 26.2416 146.718 26.1262 146.72 26.0055C146.721 25.8848 146.675 25.7684 146.592 25.681C146.288 25.3764 145.926 25.136 145.528 24.9739C145.129 24.8119 144.702 24.7314 144.272 24.7374C143.841 24.7433 143.417 24.8355 143.023 25.0086C142.629 25.1816 142.274 25.4319 141.978 25.7447C141.569 26.1806 142.223 26.8344 142.632 26.3986Z" fill="white"/>
<path d="M139.826 22.582C141.029 21.4673 142.597 20.8287 144.237 20.7854C145.905 20.7546 147.522 21.3632 148.756 22.4863C149.197 22.8903 149.851 22.2365 149.415 21.8272C147.999 20.5376 146.147 19.8345 144.232 19.8605C142.348 19.9104 140.547 20.6456 139.166 21.9282C138.72 22.3216 139.374 22.9913 139.826 22.582Z" fill="white"/>
<path d="M140.942 24.6976C141.357 24.2288 141.864 23.8512 142.432 23.5884C143.001 23.3257 143.617 23.1836 144.243 23.1711C144.869 23.1586 145.49 23.276 146.069 23.5159C146.647 23.7557 147.169 24.1129 147.602 24.5647C148.017 24.9899 148.665 24.3308 148.256 23.9056C147.735 23.3691 147.11 22.9451 146.42 22.6599C145.729 22.3746 144.987 22.2341 144.239 22.247C143.492 22.26 142.755 22.4261 142.075 22.7352C141.394 23.0442 140.784 23.4896 140.283 24.0438C139.884 24.485 140.538 25.1388 140.942 24.6976Z" fill="white"/>
<path d="M143.44 33.3406C143.366 33.3406 143.302 33.0429 143.302 32.6762C143.302 32.3094 143.36 32.0117 143.44 32.0117C143.52 32.0117 143.578 32.3094 143.578 32.6762C143.578 33.0429 143.514 33.3406 143.44 33.3406Z" fill="white"/>
<path d="M143.445 38.5817C143.311 38.1579 143.264 37.7112 143.307 37.2688C143.261 36.8263 143.308 36.379 143.445 35.9558C143.58 36.3795 143.627 36.8263 143.584 37.2688C143.63 37.7113 143.582 38.1585 143.445 38.5817Z" fill="white"/>
<path d="M143.456 43.8334C143.317 43.4106 143.268 42.9634 143.312 42.5205C143.269 42.078 143.316 41.6313 143.451 41.2076C143.585 41.6313 143.632 42.078 143.589 42.5205C143.637 42.9626 143.591 43.4098 143.456 43.8334Z" fill="white"/>
<path d="M143.461 49.0905C143.327 48.6649 143.28 48.2165 143.323 47.7722C143.28 47.3301 143.325 46.8838 143.456 46.4593C143.597 46.8817 143.646 47.3294 143.599 47.7722C143.643 48.2165 143.596 48.6649 143.461 49.0905Z" fill="white"/>
<path d="M142.138 53.0399C142.567 52.9049 143.018 52.8562 143.467 52.8964L143.328 53.0346V52.503C143.328 52.3436 143.328 52.2001 143.355 52.0831C143.381 51.8439 143.419 51.6951 143.456 51.6951C143.493 51.6951 143.53 51.8439 143.552 52.0831C143.552 52.2001 143.578 52.3436 143.583 52.503V52.7529V53.008C143.525 53.0718 143.722 52.8698 143.445 53.1462C143.007 53.2018 142.561 53.1656 142.138 53.0399Z" fill="white"/>
<path d="M137.349 53.0559C137.732 52.9215 138.14 52.8726 138.545 52.9124C138.949 52.8663 139.358 52.9136 139.741 53.0506C138.953 53.2314 138.136 53.2314 137.349 53.0506V53.0559Z" fill="white"/>
<path d="M132.533 53.0718C132.916 52.9311 133.328 52.882 133.734 52.9283C134.137 52.8851 134.546 52.9304 134.93 53.0612C134.548 53.2014 134.138 53.2506 133.734 53.2047C133.329 53.2482 132.919 53.2028 132.533 53.0718Z" fill="white"/>
<path d="M127.749 53.0824C128.132 52.9483 128.541 52.9011 128.945 52.9442C129.35 52.8977 129.761 52.9432 130.146 53.0771C129.761 53.2117 129.351 53.2607 128.945 53.2206C128.541 53.2666 128.131 53.2194 127.749 53.0824Z" fill="white"/>
<path d="M124.028 54.4219C123.893 53.9928 123.845 53.5408 123.89 53.0931C124.166 52.8166 123.969 53.0186 124.028 52.9548H124.559C124.719 52.9548 124.862 52.9549 124.979 52.9867C125.218 52.9867 125.367 53.0452 125.367 53.0824C125.367 53.1196 125.218 53.1515 124.979 53.1781C124.862 53.1781 124.719 53.1781 124.559 53.21H124.31H124.028C124.086 53.1515 123.89 53.3482 124.161 53.0718C124.213 53.5262 124.167 53.9864 124.028 54.4219Z" fill="white"/>
<path d="M124.028 59.8278C123.844 58.9371 123.844 58.0182 124.028 57.1275C124.212 58.0182 124.212 58.9371 124.028 59.8278Z" fill="white"/>
<path d="M124.028 65.2337C123.844 64.343 123.844 63.4241 124.028 62.5334C124.212 63.4241 124.212 64.343 124.028 65.2337Z" fill="white"/>
<path d="M124.028 70.6396C123.844 69.7489 123.844 68.83 124.028 67.9393C124.212 68.83 124.212 69.7489 124.028 70.6396Z" fill="white"/>
<path d="M124.028 74.6687C123.953 74.6687 123.89 74.3711 123.89 74.0043C123.89 73.6375 123.953 73.3399 124.028 73.3399C124.102 73.3399 124.166 73.6375 124.166 74.0043C124.166 74.3711 124.118 74.6687 124.028 74.6687Z" fill="white"/>
<path d="M84.7993 194.279L86.7873 190.595L79.9091 186.826L76.943 192.184L77.3523 192.445C79.1915 193.593 86.7873 198.143 88.265 198.451C89.9182 198.797 84.7993 194.279 84.7993 194.279Z" fill="#FFC100"/>
<path d="M79.468 193.497C79.6804 192.861 79.654 192.17 79.3935 191.552C79.1367 190.941 78.6608 190.448 78.0593 190.17L76.9962 192.089L79.468 193.497Z" fill="#FFC100"/>
<path d="M87.2445 196.591C87.2445 196.591 88.9667 198.302 88.5255 198.499C88.0843 198.696 80.2386 194.39 76.943 192.184L77.0387 192.035L86.1495 197.144C86.1495 197.144 86.8192 196.389 87.2445 196.591Z" fill="#FFC100"/>
<path d="M76.9324 191.972L77.044 192.051L77.3736 192.259L78.5908 192.997C79.6273 193.614 81.0679 194.449 82.6785 195.336C84.2891 196.224 85.7614 196.989 86.8405 197.532C87.3402 197.787 87.7707 197.994 88.1162 198.169L88.467 198.334L88.5893 198.387C88.5893 198.387 88.5521 198.361 88.4724 198.318L88.1322 198.138L86.8671 197.473C85.804 196.942 84.3316 196.139 82.721 195.251C81.1104 194.364 79.6699 193.54 78.628 192.939L77.3895 192.227L77.0546 192.035L76.9324 191.972Z" fill="white"/>
<path d="M86.091 197.245C86.2595 197.069 86.4466 196.912 86.6491 196.777C86.8735 196.669 87.1087 196.585 87.3508 196.527C87.0926 196.489 86.8296 196.548 86.6119 196.692C86.3743 196.803 86.188 197.001 86.091 197.245Z" fill="white"/>
<path d="M84.6238 195.102C84.6238 195.129 84.7993 195.065 84.9853 194.959C85.1713 194.853 85.3149 194.757 85.3042 194.73C85.1743 194.75 85.0506 194.799 84.9428 194.874C84.7567 194.98 84.6132 195.081 84.6238 195.102Z" fill="white"/>
<path d="M84.2307 194.507C84.3415 194.524 84.4548 194.513 84.5602 194.475C84.741 194.433 84.8792 194.38 84.8739 194.353C84.7613 194.336 84.6462 194.347 84.539 194.385C84.3636 194.427 84.2254 194.481 84.2307 194.507Z" fill="white"/>
<path d="M84.236 193.662C84.236 193.662 84.3742 193.795 84.5709 193.906C84.6835 193.987 84.8123 194.041 84.9483 194.066C84.9483 194.066 84.8101 193.933 84.6134 193.821C84.5008 193.741 84.3719 193.687 84.236 193.662Z" fill="white"/>
<path d="M84.3636 193.141C84.4424 193.283 84.5606 193.399 84.7038 193.476C84.8299 193.576 84.9839 193.636 85.145 193.646C85.145 193.619 84.9642 193.534 84.7516 193.396C84.539 193.258 84.3848 193.12 84.3636 193.141Z" fill="white"/>
<path d="M85.1874 194.635C85.3225 194.738 85.4733 194.818 85.6339 194.874C85.806 194.942 85.9839 194.993 86.1655 195.028C86.2736 195.052 86.3841 195.065 86.495 195.065C86.5647 195.062 86.6308 195.034 86.6811 194.985C86.7056 194.956 86.7211 194.921 86.7259 194.883C86.7306 194.845 86.7242 194.807 86.7076 194.773C86.6283 194.66 86.5247 194.567 86.4045 194.499C86.2843 194.431 86.1505 194.392 86.0129 194.382C85.8753 194.373 85.7374 194.395 85.6093 194.446C85.4812 194.497 85.3661 194.576 85.2725 194.677C85.214 194.741 85.1874 194.784 85.1927 194.789C85.314 194.679 85.4522 194.589 85.602 194.523C85.7713 194.457 85.9567 194.444 86.1336 194.486C86.2395 194.501 86.3412 194.538 86.4326 194.594C86.5239 194.649 86.603 194.723 86.6651 194.81C86.7023 194.9 86.6332 194.97 86.5269 194.97C86.4253 194.971 86.3237 194.962 86.2239 194.943C86.0438 194.911 85.8662 194.867 85.6924 194.81C85.3628 194.709 85.2246 194.619 85.1874 194.635Z" fill="white"/>
<path d="M85.2884 194.72C85.3933 194.655 85.4723 194.555 85.5117 194.438C85.5612 194.315 85.5795 194.182 85.5649 194.05C85.5646 193.964 85.5419 193.879 85.4991 193.805C85.4562 193.73 85.3946 193.668 85.3203 193.625C85.271 193.61 85.2177 193.615 85.172 193.638C85.1262 193.662 85.0917 193.703 85.0758 193.752C85.0452 193.828 85.0325 193.91 85.0386 193.991C85.0438 194.121 85.0652 194.25 85.1024 194.374C85.127 194.49 85.1799 194.598 85.2566 194.688C85.2322 194.576 85.2021 194.466 85.1662 194.358C85.1416 194.238 85.1292 194.115 85.129 193.991C85.129 193.864 85.1715 193.673 85.2938 193.715C85.416 193.758 85.4585 193.933 85.4798 194.061C85.4945 194.18 85.4837 194.302 85.4479 194.417C85.4048 194.523 85.3514 194.624 85.2884 194.72Z" fill="white"/>
<path d="M78.1071 190.148C78.1071 190.148 78.3144 190.239 78.6014 190.446C78.9808 190.714 79.2788 191.082 79.4625 191.509C79.637 191.94 79.6903 192.411 79.6167 192.87C79.5582 193.221 79.4625 193.401 79.4785 193.401C79.4944 193.401 79.5104 193.359 79.5529 193.263C79.6109 193.132 79.6537 192.995 79.6805 192.854C79.7786 192.382 79.7323 191.891 79.5476 191.445C79.3552 191.011 79.0414 190.642 78.644 190.382C78.5219 190.306 78.3939 190.241 78.2612 190.186C78.2126 190.164 78.1603 190.151 78.1071 190.148Z" fill="white"/>
<path d="M80.3875 187.698C80.0851 188.144 79.8066 188.605 79.553 189.08C79.2776 189.541 79.0274 190.016 78.8035 190.505C79.1066 190.061 79.3852 189.602 79.638 189.128C79.9178 188.667 80.1681 188.19 80.3875 187.698Z" fill="white"/>
<path d="M80.7011 193.3C80.9854 193.56 81.3037 193.78 81.6472 193.954C81.978 194.159 82.3359 194.317 82.7103 194.422C82.7103 194.422 82.2585 194.178 81.711 193.89C81.1635 193.603 80.717 193.279 80.7011 193.3Z" fill="white"/>
<path d="M79.3775 192.562C79.3775 192.562 79.3775 192.673 79.3775 192.801C79.3775 192.928 79.3457 193.035 79.3775 193.045C79.4094 193.056 79.4732 192.96 79.4839 192.811C79.4945 192.663 79.3775 192.551 79.3775 192.562Z" fill="white"/>
<path d="M79.1916 191.647C79.165 191.647 79.1916 191.754 79.1916 191.865C79.1916 191.977 79.2714 192.057 79.2979 192.051C79.3245 192.046 79.2979 191.95 79.2979 191.839C79.2979 191.727 79.2182 191.642 79.1916 191.647Z" fill="white"/>
<path d="M78.6228 190.962C78.6228 190.988 78.7078 191.036 78.7876 191.126C78.8673 191.217 78.9151 191.312 78.9417 191.307C78.9683 191.302 78.9417 191.174 78.862 191.063C78.7822 190.951 78.6281 190.935 78.6228 190.962Z" fill="white"/>
<path d="M78.1816 190.542C78.1816 190.542 78.1816 190.616 78.2294 190.669C78.2773 190.722 78.3251 190.754 78.3464 190.733C78.3676 190.712 78.3464 190.659 78.2985 190.605C78.2507 190.552 78.2028 190.526 78.1816 190.542Z" fill="white"/>
<path d="M76.9802 189.053L87.7441 194.05L107.018 159.653C109.532 150.58 111.956 118.639 111.956 118.639L98.003 119.702C98.003 119.702 95.8502 142.633 92.4749 154.449L76.9802 189.053Z" fill="white"/>
<path d="M89.4398 190.68C88.8754 190.507 88.3261 190.288 87.7973 190.026C86.8033 189.59 85.4319 188.963 83.9223 188.267C82.4127 187.57 81.0625 186.922 80.0845 186.438C79.5434 186.203 79.0225 185.924 78.527 185.604C79.0884 185.78 79.6357 185.999 80.1642 186.257C81.1635 186.693 82.5349 187.321 84.0392 188.017C85.5435 188.713 86.9096 189.367 87.8823 189.851C88.4225 190.086 88.9433 190.363 89.4398 190.68Z" fill="#373737"/>
<path opacity="0.2" d="M99.3266 129.1L107.97 155.321L109.065 149.506L99.3266 129.1Z" fill="#373737"/>
<path d="M141.037 192.062L138.847 188.495L132.134 192.551L135.281 197.808L135.711 197.579C137.63 196.564 145.375 192.264 146.385 191.153C147.49 189.904 141.037 192.062 141.037 192.062Z" fill="#FFC100"/>
<path d="M137.662 196.282C137.22 195.776 136.607 195.45 135.94 195.368C135.284 195.286 134.621 195.45 134.08 195.831L135.212 197.707L137.662 196.282Z" fill="#FFC100"/>
<path d="M144.227 191.105C144.227 191.105 146.576 190.478 146.523 190.956C146.47 191.435 138.81 196.059 135.249 197.808L135.169 197.649L144.158 192.333C144.158 192.333 143.86 191.36 144.227 191.105Z" fill="#FFC100"/>
<path d="M135.073 197.707L135.196 197.654C135.297 197.595 135.414 197.537 135.541 197.473L136.79 196.787C137.853 196.203 139.289 195.374 140.862 194.427C142.435 193.481 143.844 192.588 144.854 191.929L146.045 191.142L146.364 190.924L146.47 190.845C146.428 190.859 146.388 190.881 146.353 190.908L146.023 191.11L144.817 191.876C143.796 192.519 142.388 193.396 140.814 194.348C139.241 195.299 137.8 196.128 136.758 196.729L135.52 197.441L135.185 197.633L135.073 197.707Z" fill="white"/>
<path d="M144.227 192.434C144.057 191.971 144.057 191.462 144.227 190.999C144.066 191.202 143.984 191.457 143.998 191.716C143.984 191.975 144.066 192.231 144.227 192.434Z" fill="white"/>
<path d="M141.643 192.625C141.691 192.504 141.709 192.373 141.697 192.243C141.697 192.025 141.697 191.855 141.659 191.855C141.609 191.976 141.589 192.107 141.601 192.237C141.582 192.368 141.597 192.502 141.643 192.625Z" fill="white"/>
<path d="M140.926 192.668C140.926 192.668 141.011 192.54 141.064 192.365C141.109 192.261 141.127 192.148 141.117 192.035C141.117 192.035 141.027 192.163 140.974 192.338C140.921 192.514 140.899 192.657 140.926 192.668Z" fill="white"/>
<path d="M140.198 192.237C140.198 192.264 140.378 192.19 140.575 192.073C140.772 191.956 140.915 191.849 140.905 191.823C140.768 191.851 140.639 191.909 140.527 191.993C140.331 192.104 140.187 192.216 140.198 192.237Z" fill="white"/>
<path d="M139.81 191.865C139.972 191.871 140.133 191.829 140.272 191.743C140.506 191.621 140.66 191.461 140.639 191.445C140.496 191.504 140.36 191.575 140.23 191.658C140.084 191.715 139.943 191.784 139.81 191.865Z" fill="white"/>
<path d="M141.516 191.902C141.674 191.842 141.819 191.753 141.946 191.642C142.09 191.526 142.223 191.398 142.345 191.259C142.42 191.178 142.486 191.089 142.542 190.994C142.575 190.934 142.585 190.863 142.568 190.797C142.556 190.761 142.533 190.729 142.503 190.706C142.472 190.682 142.436 190.668 142.398 190.664C142.185 190.682 141.985 190.774 141.832 190.923C141.679 191.072 141.582 191.27 141.558 191.483C141.544 191.607 141.555 191.734 141.59 191.855C141.6 191.901 141.62 191.944 141.649 191.982C141.624 191.82 141.624 191.655 141.649 191.493C141.677 191.321 141.755 191.16 141.872 191.031C142.006 190.873 142.197 190.773 142.404 190.754C142.505 190.754 142.526 190.861 142.478 190.956C142.426 191.045 142.366 191.129 142.297 191.206C142.183 191.342 142.058 191.47 141.925 191.589C141.67 191.791 141.505 191.892 141.516 191.902Z" fill="white"/>
<path d="M141.638 191.855C141.638 191.855 141.638 191.711 141.51 191.525C141.428 191.421 141.322 191.337 141.202 191.281C141.126 191.241 141.041 191.22 140.955 191.22C140.869 191.22 140.784 191.241 140.708 191.281C140.673 191.318 140.653 191.367 140.653 191.419C140.653 191.47 140.673 191.52 140.708 191.557C140.758 191.622 140.824 191.673 140.899 191.706C141.011 191.769 141.131 191.815 141.255 191.844C141.37 191.883 141.492 191.892 141.611 191.871C141.611 191.871 141.479 191.844 141.277 191.78C141.16 191.743 141.047 191.693 140.942 191.631C140.825 191.578 140.687 191.435 140.782 191.35C140.843 191.32 140.911 191.304 140.979 191.304C141.047 191.304 141.114 191.32 141.176 191.35C141.287 191.393 141.388 191.462 141.468 191.552C141.534 191.647 141.59 191.749 141.638 191.855Z" fill="white"/>
<path d="M134.127 195.788C134.127 195.788 134.308 195.655 134.632 195.506C135.057 195.315 135.525 195.243 135.988 195.299C136.444 195.361 136.876 195.545 137.237 195.831C137.513 196.059 137.641 196.245 137.657 196.235C137.673 196.224 137.657 196.181 137.572 196.096C137.485 195.982 137.387 195.877 137.279 195.783C136.924 195.462 136.48 195.256 136.005 195.193C135.53 195.131 135.048 195.214 134.622 195.432C134.491 195.494 134.368 195.571 134.255 195.661C134.127 195.746 134.095 195.783 134.127 195.788Z" fill="white"/>
<path d="M133.112 192.578C133.598 193.536 134.141 194.465 134.739 195.358C134.514 194.869 134.257 194.397 133.968 193.944C133.71 193.472 133.424 193.016 133.112 192.578Z" fill="white"/>
<path d="M138.114 195.118C138.479 194.997 138.827 194.831 139.15 194.624C139.488 194.44 139.803 194.215 140.086 193.954C140.086 193.954 139.645 194.22 139.103 194.544C138.56 194.869 138.098 195.092 138.114 195.118Z" fill="white"/>
<path d="M136.785 195.91C136.785 195.937 136.875 195.979 136.982 196.054C137.088 196.128 137.168 196.203 137.189 196.187C137.21 196.171 137.157 196.059 137.035 195.974C136.913 195.889 136.785 195.884 136.785 195.91Z" fill="white"/>
<path d="M135.924 195.591C135.924 195.618 136.004 195.661 136.115 195.692C136.227 195.724 136.323 195.719 136.333 195.692C136.344 195.666 136.253 195.623 136.142 195.591C136.03 195.56 135.935 195.565 135.924 195.591Z" fill="white"/>
<path d="M135.047 195.74C135.047 195.74 135.153 195.703 135.276 195.676C135.398 195.65 135.494 195.676 135.504 195.639C135.515 195.602 135.403 195.554 135.254 195.586C135.105 195.618 135.026 195.724 135.047 195.74Z" fill="white"/>
<path d="M134.462 195.91C134.462 195.937 134.526 195.948 134.595 195.937C134.664 195.926 134.712 195.894 134.712 195.868C134.712 195.841 134.648 195.831 134.579 195.841C134.51 195.852 134.457 195.884 134.462 195.91Z" fill="white"/>
<path d="M91.6511 105.786C91.3906 105.786 88.5362 114.248 91.2843 119.856C91.5607 120.419 93.7135 123.508 93.7135 123.508C101.32 132.486 109.028 149.889 111.175 154.46C115.592 163.842 131.858 194.693 131.858 194.693L142.308 188.713L127.031 149.431L113.163 113.982L91.6511 105.786Z" fill="white"/>
<path d="M110.495 142.075C110.495 142.075 111.234 145.652 111.616 145.44C112.706 144.855 120.185 142.064 120.185 142.064L118.165 139.826L110.495 142.075Z" fill="#373737"/>
<path d="M112.706 144.855C112.706 144.855 114.104 150.612 115.895 150.293C117.687 149.974 121.461 148.092 121.461 148.092L119.191 142.41L112.706 144.855Z" fill="#373737"/>
<path opacity="0.2" d="M112.701 144.855L119.201 142.41L119.568 143.324L112.95 145.748L112.701 144.855Z" fill="#373737"/>
<path d="M98.3113 128.754C98.4691 129.007 98.6077 129.272 98.7259 129.546C98.997 130.078 99.3479 130.838 99.7891 131.726C100.714 133.602 101.947 136.116 103.313 138.896C104.679 141.676 105.928 144.244 106.768 146.109C107.194 147.045 107.523 147.8 107.746 148.331C107.872 148.6 107.978 148.877 108.065 149.16C107.902 148.911 107.761 148.648 107.645 148.374C107.38 147.816 107.023 147.082 106.582 146.194C105.657 144.318 104.424 141.804 103.058 139.018C101.692 136.233 100.448 133.671 99.603 131.805C99.1831 130.875 98.8482 130.115 98.625 129.589C98.4949 129.321 98.3899 129.041 98.3113 128.754Z" fill="#373737"/>
<path d="M141.526 186.885C141.558 186.954 139.15 188.235 136.137 189.744C133.123 191.254 130.662 192.402 130.624 192.354C130.587 192.306 133.006 191.009 136.014 189.5C139.023 187.99 141.495 186.816 141.526 186.885Z" fill="#373737"/>
<path d="M103.553 69.3054C103.553 69.3054 94.5162 65.6855 93.7561 66.1958C92.996 66.7061 88.1535 74.6262 92.6345 75.28C97.1155 75.9338 104.047 70.4163 104.047 70.4163L103.553 69.3054Z" fill="#FFC100"/>
<path d="M103.191 69.5978C103.091 69.6987 102.974 69.7815 102.846 69.8423C102.513 70.0293 102.155 70.1654 101.782 70.2462C100.525 70.4901 99.2216 70.3281 98.0616 69.7838C96.9186 69.2342 95.8707 68.5057 94.9574 67.6257C94.554 67.295 94.1885 66.9207 93.8677 66.5094C94.2967 66.8014 94.7036 67.1248 95.0849 67.4769C96.0175 68.2964 97.0563 68.9865 98.1732 69.5286C99.2911 70.0544 100.539 70.2393 101.761 70.0602C102.25 69.9449 102.728 69.7903 103.191 69.5978Z" fill="white"/>
<path d="M131.379 87.2187L132.15 85.624C132.685 84.7841 133.137 83.8939 133.5 82.9663C133.686 82.5021 133.792 82.0096 133.814 81.5098C133.867 80.8915 133.833 80.2688 133.713 79.66C133.548 79.1285 134.133 78.6501 134.547 78.9637C134.962 79.2773 135.456 80.7657 135.206 82.5889C134.957 84.4121 137.072 82.4347 137.864 81.7278L139.836 88.5104L134.914 91.8113L131.379 87.2187Z" fill="#E6BBAC"/>
<path d="M111.18 70.2888C110.606 70.2888 109.926 74.4402 109.352 81.8925C108.698 90.3495 108.751 98.9022 111.095 104.255C111.313 104.829 111.642 105.354 112.064 105.8C112.485 106.246 112.991 106.604 113.551 106.854C119.605 109.353 136.307 91.4392 136.307 91.4392L132.198 84.2261L120.435 93.7249C120.435 93.7249 119.26 84.1144 119.488 79.6866C119.659 76.3325 116.299 70.326 111.18 70.2888Z" fill="#FFC100"/>
<g opacity="0.2">
<path opacity="0.2" d="M111.18 70.2888C110.606 70.2888 109.926 74.4402 109.352 81.8925C108.698 90.3495 108.751 98.9022 111.095 104.255C111.313 104.829 111.642 105.354 112.064 105.8C112.485 106.246 112.991 106.604 113.551 106.854C119.605 109.353 136.307 91.4392 136.307 91.4392L132.198 84.2261L120.435 93.7249C120.435 93.7249 119.26 84.1144 119.488 79.6866C119.659 76.3325 116.299 70.326 111.18 70.2888Z" fill="#373737"/>
</g>
<path d="M118.67 127.542L124.038 125.756L116.49 74.6688L113.503 115.593L118.67 127.542Z" fill="#FFC100"/>
<path opacity="0.2" d="M118.67 127.542L124.038 125.756L116.49 74.6688L113.503 115.593L118.67 127.542Z" fill="#373737"/>
<path d="M122.199 113.291C122.116 113.021 122.057 112.743 122.024 112.462C121.928 111.931 121.806 111.149 121.657 110.182C121.37 108.258 121.019 105.589 120.722 102.628C120.424 99.6676 120.243 96.9833 120.137 95.0378C120.089 94.0651 120.057 93.2784 120.041 92.7309C120.015 92.4498 120.015 92.1668 120.041 91.8857C120.096 92.1627 120.13 92.4435 120.142 92.7256C120.19 93.3156 120.254 94.0916 120.328 95.0219C120.482 96.9673 120.695 99.6464 120.993 102.602C121.29 105.557 121.609 108.226 121.849 110.155C121.96 111.085 122.056 111.856 122.125 112.446C122.173 112.725 122.198 113.008 122.199 113.291Z" fill="white"/>
<path d="M134.372 93.4591C134.078 93.1586 133.819 92.825 133.601 92.4651C133.155 91.8219 132.57 90.9236 131.959 89.903C131.347 88.8825 130.827 87.9416 130.47 87.2453C130.247 86.8838 130.068 86.4965 129.939 86.0918C130.2 86.4239 130.43 86.7798 130.625 87.1549C131.076 87.915 131.603 88.7921 132.177 89.7648L133.771 92.3641C134.008 92.708 134.209 93.0749 134.372 93.4591Z" fill="white"/>
<path d="M116.405 78.969C115.798 79.0383 115.187 79.0578 114.577 79.0275H114.391L114.471 78.8574C114.598 78.565 114.742 78.2674 114.88 77.9537L114.981 77.7411L115.119 77.9378L115.459 78.4268L115.534 78.5331H115.294L115.975 77.1671L116.145 76.8269L116.203 77.1989C116.319 77.777 116.387 78.3638 116.405 78.9531C116.226 78.3913 116.079 77.8198 115.964 77.2415L116.193 77.2734L115.544 78.6554L115.438 78.868L115.305 78.6713L115.231 78.5703C115.119 78.4003 115.002 78.2355 114.896 78.076H115.13C114.976 78.3843 114.832 78.682 114.688 78.9637L114.582 78.7883C115.193 78.8179 115.801 78.8782 116.405 78.969Z" fill="white"/>
<path d="M116.634 79.4049C116.634 79.4793 116.171 79.5431 115.603 79.5431C115.034 79.5431 114.577 79.4793 114.577 79.4049C114.577 79.3305 115.039 79.2614 115.603 79.2614C116.166 79.2614 116.634 79.3252 116.634 79.4049Z" fill="white"/>
<path d="M100.018 71.3519C100.018 71.3519 94.6756 73.797 92.0444 77.8102C89.4133 81.8235 90.7634 117.581 90.7634 117.581L116.134 118.389C116.134 118.389 114.008 71.3041 112.711 70.7938C109.453 69.4861 105.424 69.4861 100.018 71.3519Z" fill="#7536C6"/>
<path d="M89.6897 84.2314C89.6631 85.4433 87.7442 129.1 87.7442 129.1L108.305 129.068L102.899 70.3419C102.899 70.3419 89.9555 72.4416 89.6897 84.2314Z" fill="#FFC100"/>
<path d="M102.968 118.543C101.268 118.696 99.5608 118.758 97.8542 118.729C96.1476 118.793 94.4387 118.763 92.7354 118.639C94.4354 118.486 96.1423 118.424 97.8489 118.453C99.5556 118.392 101.264 118.422 102.968 118.543Z" fill="white"/>
<path d="M105.679 128.94C105.638 128.666 105.617 128.389 105.615 128.111C105.615 127.526 105.567 126.761 105.535 125.841C105.466 123.928 105.36 121.281 105.19 118.362C105.02 115.444 104.812 112.808 104.658 110.894C104.584 109.98 104.52 109.22 104.477 108.635C104.439 108.358 104.427 108.079 104.44 107.8C104.513 108.07 104.561 108.346 104.584 108.624C104.658 109.156 104.749 109.927 104.85 110.878C105.057 112.786 105.291 115.423 105.466 118.346C105.642 121.27 105.711 123.917 105.727 125.836C105.727 126.798 105.727 127.574 105.727 128.106C105.738 128.385 105.721 128.664 105.679 128.94Z" fill="white"/>
<path d="M106.194 120.175C106.157 120.175 106.317 119.968 106.62 120.079C106.722 120.11 106.812 120.173 106.876 120.26C106.941 120.346 106.975 120.45 106.975 120.558C106.975 120.665 106.941 120.769 106.876 120.856C106.812 120.942 106.722 121.005 106.62 121.036C106.512 121.086 106.391 121.098 106.275 121.072C106.159 121.045 106.056 120.98 105.982 120.887C105.926 120.812 105.889 120.724 105.875 120.631C105.861 120.539 105.87 120.444 105.902 120.356C105.998 120.063 106.226 120.031 106.226 120.063C106.226 120.095 106.109 120.191 106.093 120.398C106.078 120.455 106.079 120.514 106.096 120.57C106.114 120.626 106.147 120.676 106.191 120.714C106.236 120.752 106.29 120.776 106.348 120.784C106.406 120.792 106.465 120.784 106.519 120.76C106.575 120.743 106.625 120.709 106.662 120.662C106.698 120.615 106.719 120.558 106.721 120.499C106.714 120.446 106.695 120.394 106.666 120.349C106.636 120.304 106.597 120.266 106.551 120.239C106.359 120.138 106.216 120.212 106.194 120.175Z" fill="white"/>
<path d="M105.61 109.836C105.61 109.873 105.509 109.932 105.487 110.097C105.466 110.261 105.562 110.458 105.785 110.384C105.826 110.372 105.864 110.349 105.893 110.317C105.922 110.285 105.942 110.246 105.95 110.204C105.959 110.161 105.955 110.117 105.94 110.077C105.925 110.036 105.899 110.001 105.865 109.974C105.748 109.857 105.62 109.873 105.61 109.836C105.599 109.799 105.748 109.687 105.976 109.836C106.057 109.879 106.122 109.945 106.164 110.025C106.206 110.106 106.222 110.198 106.21 110.288C106.199 110.378 106.16 110.462 106.099 110.53C106.038 110.597 105.958 110.645 105.87 110.665C105.785 110.701 105.692 110.709 105.603 110.689C105.513 110.67 105.432 110.623 105.37 110.556C105.308 110.489 105.268 110.404 105.256 110.313C105.243 110.223 105.259 110.13 105.301 110.049C105.423 109.794 105.615 109.799 105.61 109.836Z" fill="white"/>
<path d="M103.521 95.8458C103.499 95.7623 103.487 95.6768 103.483 95.5906C103.483 95.394 103.441 95.1548 103.414 94.8677C103.367 94.1926 103.297 93.2731 103.212 92.21C103.048 89.9509 102.803 86.836 102.495 83.3915C102.186 79.9471 101.873 76.8428 101.634 74.589C101.522 73.5259 101.426 72.5957 101.357 71.9313C101.357 71.6442 101.309 71.3997 101.293 71.203C101.282 71.1184 101.282 71.0325 101.293 70.9479C101.327 71.0273 101.346 71.1118 101.352 71.1977C101.384 71.3944 101.426 71.6283 101.469 71.9153C101.565 72.5426 101.692 73.4515 101.836 74.5731C102.123 76.8215 102.468 79.9311 102.777 83.3756C103.085 86.82 103.308 89.9402 103.414 92.1993C103.473 93.3315 103.51 94.2458 103.526 94.8837C103.526 95.1707 103.526 95.4152 103.526 95.6119C103.536 95.6897 103.534 95.7685 103.521 95.8458Z" fill="white"/>
<path d="M103.021 70.0177C102.517 70.2474 101.997 70.4376 101.463 70.5864C100.196 70.9905 98.9541 71.4679 97.7426 72.0163C96.5372 72.5708 95.4125 73.2861 94.3991 74.1425C93.6337 74.8123 93.2404 75.3119 93.2031 75.28C93.1659 75.2481 93.2723 75.1312 93.4477 74.9026C93.6964 74.5788 93.972 74.2766 94.2716 73.999C95.2608 73.08 96.3915 72.3261 97.6203 71.7665C98.8429 71.2096 100.109 70.7528 101.405 70.4004C101.931 70.2238 102.472 70.0957 103.021 70.0177Z" fill="white"/>
<path d="M117.926 83.3703L127.26 72.0907L128.052 72.8455L118.819 84.2101L117.926 83.3703Z" fill="white"/>
<path d="M118.67 82.7749C118.67 82.7749 120.142 78.6076 120.472 77.7145C120.801 76.8215 121.365 75.28 121.588 75.2428C121.811 75.2056 122.651 75.3066 121.641 77.9644C120.631 80.6221 122.944 78.9477 122.944 78.9477L124.974 76.6249C124.974 76.6249 127.01 82.0467 126.037 83.6945C125.212 85.0089 124.281 86.2534 123.252 87.4154L118.67 82.7749Z" fill="#E6BBAC"/>
<path d="M123.549 87.0858L120.642 90.2485L116.517 84.9755L118.67 82.7909L123.549 87.0858Z" fill="#E6BBAC"/>
<path d="M94.4897 74.706C93.8837 74.8548 89.9343 78.6767 89.8758 86.8466C89.828 93.3369 90.3276 107.758 94.7608 109.9C96.77 110.873 99.8158 110.851 102.463 109.145C109.905 104.319 123.135 88.7815 123.135 88.7815L117.224 82.4826C117.224 82.4826 101.868 98.1049 101.214 97.5308C100.225 96.6697 100.379 88.5582 99.5394 81.1803C98.9441 75.9392 98.2424 73.7704 94.4897 74.706Z" fill="#FFC100"/>
<path d="M106.396 106.126C106.331 106.219 106.256 106.304 106.173 106.381C105.949 106.62 105.713 106.847 105.466 107.062C104.556 107.852 103.546 108.52 102.463 109.05C101.709 109.41 100.92 109.69 100.108 109.884C99.1679 110.12 98.1896 110.164 97.2323 110.012C96.1786 109.8 95.1974 109.32 94.3832 108.619C93.5153 107.869 92.8021 106.957 92.2835 105.935C91.3179 103.963 90.7353 101.825 90.5666 99.6357C90.3062 97.6477 90.1201 95.8458 90.0351 94.3202C89.95 92.7947 89.8862 91.5827 89.8756 90.7322C89.8756 90.307 89.8756 89.9774 89.8756 89.7542C89.863 89.6411 89.863 89.527 89.8756 89.414C89.9002 89.5257 89.9126 89.6398 89.9128 89.7542C89.9128 90.0023 89.9288 90.3265 89.9606 90.7269C90.0032 91.5774 90.067 92.8 90.2052 94.3043C90.3434 95.8086 90.5454 97.6052 90.8164 99.5879C90.9361 100.625 91.1135 101.654 91.348 102.671C91.6133 103.756 92.0076 104.805 92.5227 105.796C93.0263 106.787 93.7157 107.671 94.5533 108.401C95.3286 109.078 96.2664 109.541 97.2748 109.746C98.1966 109.902 99.1406 109.869 100.049 109.65C100.847 109.463 101.622 109.19 102.362 108.837C103.442 108.332 104.456 107.696 105.381 106.945C106.051 106.45 106.375 106.105 106.396 106.126Z" fill="white"/>
<path d="M117.224 82.4826C117.14 82.6006 117.047 82.7125 116.947 82.8175C116.756 83.0248 116.48 83.349 116.108 83.737C115.374 84.529 114.284 85.6506 112.918 87.0273C111.552 88.4041 109.873 90.02 107.991 91.8113L105.009 94.5966C103.946 95.5481 102.883 96.5527 101.697 97.5202L101.495 97.685V97.4139C101.458 96.8398 101.421 96.2285 101.389 95.6119C101.203 92.3854 101.028 89.313 100.857 86.5117C100.762 85.1138 100.746 83.7796 100.608 82.5517C100.504 81.4106 100.2 80.2968 99.7093 79.2614C99.3022 78.4121 98.6858 77.6804 97.9179 77.1352C97.3279 76.737 96.6487 76.4905 95.9406 76.4176C95.333 76.3608 94.7206 76.4501 94.1545 76.678C94.2899 76.5911 94.4366 76.5231 94.5904 76.476C95.0278 76.328 95.4911 76.2719 95.9512 76.3113C96.6828 76.367 97.3886 76.6065 98.003 77.0076C98.8066 77.5562 99.4548 78.3033 99.8847 79.1763C100.4 80.2286 100.722 81.3645 100.836 82.5304C100.985 83.7742 101.012 85.1084 101.107 86.5064C101.277 89.3024 101.458 92.3535 101.639 95.6066C101.671 96.2232 101.708 96.8345 101.74 97.4085L101.522 97.3022C103.823 95.3833 105.907 93.39 107.81 91.6359C109.713 89.8818 111.382 88.2605 112.775 86.9051C114.167 85.5496 115.278 84.4493 116.033 83.6786L116.905 82.7749C117.004 82.6693 117.11 82.5716 117.224 82.4826Z" fill="white"/>
<path d="M120.525 91.3914C120.187 91.1255 119.88 90.8224 119.611 90.4877C119.079 89.9083 118.346 89.0951 117.554 88.1861C116.762 87.2772 116.055 86.4426 115.555 85.826C115.261 85.513 115.004 85.167 114.79 84.7948C115.124 85.0607 115.429 85.3619 115.698 85.6931C116.23 86.2778 116.969 87.0911 117.761 88.0054C118.553 88.9197 119.26 89.7489 119.76 90.3655C120.051 90.6786 120.308 91.0226 120.525 91.3914Z" fill="white"/>
<path d="M100.199 101.06C100.381 99.7197 100.863 98.4372 101.607 97.3075C101.448 97.9589 101.229 98.5941 100.953 99.2052C100.76 99.8457 100.507 100.467 100.199 101.06Z" fill="white"/>
<path d="M98.8695 100.018C99.7319 98.9838 100.732 98.0717 101.841 97.3075C101.447 97.8554 100.978 98.3456 100.448 98.764C99.9804 99.2509 99.4494 99.6728 98.8695 100.018Z" fill="white"/>
<path d="M122.965 89.1535C122.659 88.8596 122.381 88.5375 122.135 88.1914C121.641 87.5801 120.955 86.7509 120.163 85.8579C119.371 84.9649 118.622 84.1888 118.074 83.6307C117.759 83.3463 117.471 83.0332 117.213 82.6952C117.579 82.9151 117.915 83.1813 118.213 83.4872C118.968 84.1794 119.686 84.9104 120.365 85.6772C121.049 86.4393 121.692 87.2378 122.29 88.0692C122.56 88.4001 122.787 88.7646 122.965 89.1535Z" fill="white"/>
<path d="M134.047 71.6124C134.047 71.6124 142.387 115.625 142.393 116.05C142.398 116.475 141.755 152.467 142.345 158.223C142.935 163.98 145.672 198.781 145.672 198.781H147.416L145.221 139.566L145.167 111.479L138.172 76.3644L134.047 71.6124Z" fill="white"/>
<path d="M145.646 159.276C145.688 159.276 145.545 159.908 145.396 160.929C145.204 162.254 145.131 163.594 145.178 164.932C145.234 166.272 145.412 167.605 145.71 168.913C145.933 169.918 146.124 170.508 146.082 170.539C145.998 170.414 145.936 170.276 145.896 170.13C145.75 169.745 145.624 169.353 145.518 168.955C145.165 167.645 144.962 166.299 144.912 164.942C144.862 163.587 144.962 162.23 145.21 160.897C145.311 160.366 145.412 159.977 145.497 159.701C145.582 159.425 145.625 159.271 145.646 159.276Z" fill="#373737"/>
<path d="M136.402 91.5615C136.063 91.3162 135.773 91.0097 135.547 90.6578C134.96 89.8513 134.445 88.9959 134.005 88.1011C133.473 87.0699 132.99 86.129 132.66 85.4433C132.457 85.0833 132.295 84.7017 132.176 84.3058C132.434 84.6352 132.655 84.9917 132.836 85.3689C133.208 86.0333 133.713 86.9636 134.25 87.9894C134.69 88.8718 135.176 89.7305 135.706 90.5622C136.126 91.1788 136.434 91.5349 136.402 91.5615Z" fill="white"/>
<path d="M137.715 91.7635C137.779 91.8185 137.836 91.881 137.885 91.9495L138.337 92.5289C138.72 93.0605 139.273 93.7674 139.9 94.7189C140.646 95.8248 141.282 97.0017 141.797 98.2325C142.413 99.7532 142.737 101.376 142.754 103.016C142.754 106.482 142.722 109.608 142.696 111.877C142.669 112.978 142.653 113.887 142.637 114.535C142.637 114.827 142.637 115.067 142.611 115.269C142.613 115.355 142.603 115.441 142.579 115.524C142.568 115.439 142.568 115.353 142.579 115.269C142.579 115.067 142.579 114.827 142.579 114.535C142.579 113.86 142.579 112.94 142.547 111.877C142.547 109.57 142.547 106.461 142.547 103.022C142.533 101.407 142.223 99.8094 141.633 98.3069C141.132 97.0855 140.52 95.9129 139.804 94.8039C139.198 93.8472 138.672 93.0923 138.316 92.5714C138.097 92.3167 137.896 92.0467 137.715 91.7635Z" fill="#373737"/>
<path d="M145.141 134.054C145.1 133.972 145.073 133.884 145.061 133.793C145.019 133.586 144.96 133.336 144.891 133.033C144.753 132.369 144.556 131.412 144.333 130.221C143.725 127.123 143.299 123.992 143.057 120.845C142.811 117.688 142.944 114.513 143.456 111.388C143.614 110.444 143.826 109.508 144.089 108.587C144.174 108.258 144.264 108.008 144.317 107.838C144.342 107.751 144.376 107.667 144.418 107.588C144.364 107.934 144.287 108.277 144.19 108.614C144.035 109.267 143.833 110.208 143.658 111.42C143.213 114.534 143.108 117.687 143.344 120.823C143.594 124.502 144.142 127.803 144.535 130.184C144.732 131.348 144.891 132.31 145.008 133.012C145.056 133.32 145.098 133.575 145.13 133.783C145.145 133.872 145.149 133.963 145.141 134.054Z" fill="#373737"/>
<path d="M142.34 155.688C142.33 155.6 142.33 155.51 142.34 155.422C142.336 155.166 142.352 154.91 142.388 154.657C142.538 153.728 142.816 152.825 143.211 151.972C143.821 150.736 144.353 149.463 144.806 148.161C145.199 146.526 145.264 144.83 144.998 143.17C144.774 141.389 144.562 139.688 144.37 138.136C144.179 136.584 144.035 135.181 143.839 134.032C143.729 133.114 143.37 132.243 142.802 131.513C142.569 131.269 142.306 131.055 142.021 130.875C142.107 130.901 142.191 130.935 142.271 130.976C142.497 131.098 142.703 131.254 142.882 131.438C143.498 132.163 143.896 133.048 144.03 133.99C144.253 135.165 144.402 136.557 144.62 138.104C144.838 139.651 145.061 141.347 145.274 143.143C145.546 144.836 145.47 146.567 145.051 148.23C144.593 149.54 144.046 150.817 143.413 152.052C143.007 152.885 142.705 153.765 142.515 154.673C142.361 155.321 142.372 155.688 142.34 155.688Z" fill="#373737"/>
<path d="M142.409 137.094C142.493 137.231 142.558 137.38 142.6 137.535C142.751 137.947 142.877 138.368 142.977 138.795C143.313 140.203 143.461 141.649 143.419 143.095C143.375 144.538 143.139 145.968 142.717 147.348C142.592 147.765 142.442 148.175 142.27 148.576C142.217 148.728 142.144 148.873 142.053 149.006C142.005 149.006 142.249 148.352 142.531 147.289C143.26 144.523 143.347 141.627 142.786 138.822C142.568 137.759 142.366 137.11 142.409 137.094Z" fill="#373737"/>
<path d="M145.773 180.968C145.761 180.866 145.761 180.763 145.773 180.66C145.773 180.432 145.816 180.129 145.848 179.788C145.93 178.727 145.921 177.659 145.821 176.599C145.745 175.868 145.599 175.145 145.385 174.441C145.122 173.635 144.808 172.847 144.445 172.081C144.043 171.226 143.688 170.349 143.381 169.455C143.07 168.481 142.863 167.476 142.765 166.457C142.597 164.503 142.703 162.535 143.079 160.61C143.379 159.041 143.76 157.489 144.221 155.959C144.609 154.651 144.939 153.599 145.168 152.871L145.428 152.036C145.452 151.936 145.489 151.839 145.54 151.749C145.533 151.852 145.514 151.954 145.481 152.052C145.428 152.275 145.354 152.557 145.268 152.903C145.056 153.673 144.769 154.726 144.413 156.012C144.057 157.298 143.637 158.888 143.35 160.658C142.995 162.568 142.898 164.516 143.063 166.452C143.156 167.45 143.356 168.435 143.658 169.391C143.965 170.278 144.32 171.148 144.721 171.996C145.079 172.775 145.388 173.576 145.646 174.393C145.857 175.113 145.996 175.852 146.061 176.599C146.146 177.678 146.124 178.762 145.997 179.836C145.949 180.214 145.906 180.506 145.869 180.708C145.848 180.798 145.816 180.886 145.773 180.968Z" fill="#373737"/>
<path d="M146.725 179.842C146.805 179.873 146.151 181.511 145.731 183.632C145.311 185.752 145.263 187.517 145.199 187.517C145.128 187.135 145.112 186.745 145.152 186.358C145.222 184.488 145.593 182.641 146.252 180.889C146.36 180.519 146.519 180.167 146.725 179.842Z" fill="#373737"/>
<path d="M142.377 94.283C142.377 94.283 142.223 94.1342 141.989 93.8312C141.755 93.5282 141.425 93.0764 141.037 92.5076C139.036 89.5277 137.45 86.2891 136.322 82.8812C136.11 82.2274 135.956 81.6959 135.86 81.3238C135.798 81.134 135.757 80.9379 135.738 80.7391C135.831 80.9078 135.906 81.086 135.961 81.2706C136.11 81.6852 136.296 82.1955 136.493 82.7962C137.104 84.4705 137.804 86.1117 138.587 87.713C139.372 89.3124 140.24 90.8701 141.186 92.38L142.063 93.7461C142.19 93.9113 142.295 94.0917 142.377 94.283Z" fill="#373737"/>
<path d="M140.399 81.9085C140.076 81.6406 139.782 81.3395 139.522 81.0102L137.508 78.767L135.499 76.5239C135.2 76.2282 134.933 75.9022 134.701 75.5511C135.045 75.7917 135.359 76.0718 135.637 76.3857C136.168 76.9172 136.928 77.7039 137.715 78.581C138.502 79.458 139.188 80.2766 139.671 80.8826C139.951 81.1967 140.195 81.5407 140.399 81.9085Z" fill="#373737"/>
<path d="M139.666 81.967C139.666 81.967 137.253 85.6134 138.194 85.7835C139.135 85.9536 140.554 82.9025 140.458 82.4188C140.362 81.9351 139.666 81.967 139.666 81.967Z" fill="#E6BBAC"/>
<path d="M140.203 83.5669C140.203 83.5669 137.795 87.2134 138.736 87.3888C139.677 87.5642 141.091 84.5078 141 84.0241C140.91 83.5404 140.203 83.5669 140.203 83.5669Z" fill="#E6BBAC"/>
<path d="M140.915 85.7888C140.915 85.7888 138.502 89.4353 139.443 89.6054C140.384 89.7754 141.803 86.7243 141.707 86.2406C141.612 85.7569 140.915 85.7888 140.915 85.7888Z" fill="#E6BBAC"/>
<path d="M100.571 55.3256C100.969 57.8558 100.948 60.0723 99.7147 61.7042C99.4456 62.0211 99.197 62.3549 98.9705 62.7035C98.8593 62.8795 98.7849 63.0763 98.752 63.2819C98.7191 63.4875 98.7284 63.6976 98.7792 63.8995C98.8388 64.0767 98.9441 64.235 99.0843 64.3585C99.2246 64.482 99.395 64.5663 99.5783 64.6029C99.7616 64.6396 99.9513 64.6273 100.128 64.5672C100.305 64.5072 100.463 64.4016 100.586 64.261C100.546 64.5473 100.591 64.8392 100.717 65.0995C100.843 65.3598 101.044 65.5768 101.293 65.7227C101.421 65.7829 101.56 65.813 101.701 65.8107C101.842 65.8084 101.98 65.7739 102.105 65.7097C102.231 65.6455 102.34 65.5533 102.424 65.4404C102.508 65.3275 102.565 65.1968 102.59 65.0583C102.59 65.0583 102.261 66.334 103.728 66.1214L102.697 57.3295L100.571 55.3256Z" fill="white"/>
<path d="M107.183 74.7538C107.758 74.7554 108.327 74.636 108.853 74.4033C109.379 74.1707 109.85 73.8299 110.235 73.4033C110.621 72.9766 110.912 72.4736 111.091 71.927C111.269 71.3803 111.33 70.8022 111.271 70.2303C111.132 68.9174 111.016 67.849 111.016 67.849C111.016 67.849 114.253 67.344 114.29 64.1281C114.327 60.9122 113.758 53.4599 113.758 53.4599C111.919 52.6686 109.902 52.383 107.915 52.6325C105.928 52.882 104.044 53.6576 102.458 54.8791L101.974 55.2512L103.101 70.9745C103.18 72.0029 103.644 72.9636 104.401 73.6643C105.158 74.3651 106.152 74.7542 107.183 74.7538Z" fill="#E6BBAC"/>
<path d="M112.903 59.2857C112.835 59.2232 112.787 59.1421 112.765 59.0524C112.743 58.9628 112.748 58.8687 112.779 58.7819C112.811 58.6951 112.867 58.6196 112.941 58.5648C113.016 58.51 113.104 58.4784 113.197 58.474C113.289 58.4695 113.38 58.4925 113.459 58.5399C113.539 58.5873 113.602 58.6571 113.642 58.7405C113.681 58.8238 113.695 58.9171 113.682 59.0084C113.669 59.0997 113.629 59.1851 113.567 59.2538C113.483 59.3455 113.366 59.4002 113.241 59.4062C113.117 59.4122 112.995 59.3689 112.903 59.2857Z" fill="white"/>
<path d="M113.801 58.2598C113.748 58.3182 113.429 58.0737 112.988 58.0737C112.546 58.0737 112.217 58.3023 112.164 58.2438C112.11 58.1853 112.19 58.1162 112.334 58.0099C112.522 57.8705 112.75 57.7953 112.985 57.7953C113.219 57.7953 113.448 57.8705 113.636 58.0099C113.774 58.1375 113.822 58.2385 113.801 58.2598Z" fill="white"/>
<path d="M108.661 58.9348C108.74 58.9832 108.802 59.0539 108.841 59.1379C108.88 59.2219 108.893 59.3155 108.878 59.4069C108.864 59.4983 108.822 59.5833 108.76 59.6513C108.697 59.7192 108.615 59.7669 108.525 59.7885C108.435 59.8101 108.341 59.8045 108.254 59.7724C108.167 59.7403 108.092 59.6833 108.038 59.6084C107.983 59.5335 107.952 59.4442 107.949 59.3517C107.945 59.2593 107.969 59.1678 108.018 59.089C108.049 59.0361 108.091 58.9901 108.141 58.9536C108.19 58.9171 108.247 58.8909 108.307 58.8766C108.367 58.8622 108.429 58.8599 108.49 58.87C108.55 58.88 108.609 58.902 108.661 58.9348Z" fill="white"/>
<path d="M108.958 58.6531C108.905 58.7116 108.586 58.4671 108.145 58.4617C107.704 58.4564 107.374 58.6903 107.327 58.6372C107.279 58.584 107.327 58.5096 107.491 58.4033C107.68 58.2638 107.91 58.1909 108.145 58.196C108.38 58.1967 108.608 58.2752 108.794 58.4192C108.932 58.5255 108.98 58.6318 108.958 58.6531Z" fill="white"/>
<path d="M110.739 62.3315C110.97 62.2406 111.214 62.1886 111.462 62.1773C111.579 62.1773 111.669 62.1401 111.675 62.0763C111.679 61.9612 111.652 61.847 111.595 61.7468L111.239 60.8378C110.905 60.0721 110.65 59.2741 110.479 58.4565C110.887 59.1851 111.222 59.9526 111.478 60.7474C111.595 61.0664 111.701 61.364 111.813 61.6617C111.887 61.8114 111.909 61.9816 111.877 62.1454C111.86 62.1901 111.833 62.2303 111.798 62.2626C111.763 62.295 111.721 62.3185 111.675 62.3315C111.611 62.352 111.545 62.361 111.478 62.358C111.232 62.3924 110.982 62.3834 110.739 62.3315Z" fill="white"/>
<path d="M109.299 62.8258C108.831 62.5494 110.574 63.5062 111.483 63.4583C111.332 63.6928 111.106 63.8693 110.841 63.959C110.577 64.0487 110.29 64.0465 110.027 63.9527C109.059 63.5965 109.299 62.8258 109.299 62.8258Z" fill="white"/>
<path d="M111.01 67.8011C109.515 67.8281 108.046 67.41 106.79 66.5998C106.79 66.5998 107.784 68.9333 111.015 68.641L111.01 67.8011Z" fill="#D88876"/>
<path d="M101.968 58.3608C101.899 58.3608 99.5552 58.18 99.9432 60.9069C100.331 63.6337 102.962 62.3421 102.952 62.2623C102.941 62.1826 101.968 58.3608 101.968 58.3608Z" fill="#E6BBAC"/>
<path d="M101.985 61.4225C101.985 61.4225 101.937 61.465 101.862 61.5129C101.758 61.5778 101.632 61.5988 101.511 61.5713C101.319 61.4842 101.154 61.3478 101.032 61.176C100.909 61.0043 100.835 60.8032 100.815 60.5933C100.775 60.3595 100.788 60.1198 100.852 59.8916C100.866 59.8035 100.901 59.7199 100.954 59.6478C101.007 59.5757 101.076 59.5172 101.155 59.477C101.209 59.4558 101.268 59.4532 101.322 59.4696C101.377 59.486 101.425 59.5205 101.458 59.5674C101.506 59.6418 101.496 59.695 101.511 59.7003C101.527 59.7056 101.559 59.6471 101.511 59.5355C101.488 59.4691 101.441 59.414 101.379 59.3813C101.338 59.3573 101.293 59.342 101.246 59.3365C101.2 59.331 101.152 59.3354 101.107 59.3494C100.998 59.3873 100.901 59.4527 100.825 59.5393C100.748 59.6259 100.695 59.7308 100.672 59.8438C100.587 60.0953 100.567 60.3639 100.613 60.6252C100.638 60.8669 100.732 61.0963 100.885 61.2851C101.038 61.4739 101.243 61.614 101.474 61.6883C101.551 61.6982 101.628 61.6915 101.701 61.6685C101.775 61.6456 101.842 61.607 101.899 61.5554C101.985 61.5129 101.99 61.4278 101.985 61.4225Z" fill="#D88876"/>
<path d="M114.603 53.125C114.555 52.8505 114.401 52.606 114.175 52.444C113.948 52.2819 113.667 52.2153 113.391 52.2585C113.575 52.2406 113.753 52.1808 113.91 52.0837C114.068 51.9867 114.201 51.8549 114.299 51.6985C114.398 51.5421 114.459 51.3652 114.479 51.1814C114.499 50.9975 114.476 50.8116 114.413 50.6379C114.35 50.4642 114.247 50.3072 114.114 50.179C113.981 50.0508 113.82 49.9548 113.644 49.8983C113.468 49.8418 113.282 49.8264 113.099 49.8531C112.916 49.8798 112.741 49.9481 112.589 50.0526C112.953 49.7098 113.243 49.2954 113.439 48.8353C113.533 48.603 113.554 48.3473 113.498 48.1029C113.442 47.8585 113.312 47.6373 113.126 47.4693C112.915 47.3417 112.673 47.2742 112.427 47.2742C112.18 47.2742 111.938 47.3417 111.728 47.4693C111.058 47.7988 110.553 48.4154 109.867 48.7025C109.182 48.9895 108.384 48.9151 107.635 48.9948C106.796 49.0645 106 49.3954 105.36 49.941C105.046 50.217 104.8 50.5626 104.643 50.9502C104.487 51.3378 104.422 51.7567 104.456 52.1735C103.435 52.1097 102.33 52.1735 101.527 52.806C101.586 52.3951 101.535 51.976 101.379 51.5913C101.223 51.2066 100.968 50.8701 100.64 50.616C100.22 50.3232 99.7323 50.1431 99.2232 50.0928C98.7141 50.0425 98.2006 50.1239 97.7319 50.329C97.5087 50.4066 97.304 50.5298 97.131 50.6909C96.9581 50.852 96.8206 51.0474 96.7273 51.2645C96.6638 51.5874 96.6942 51.9217 96.8147 52.2278C96.9353 52.534 97.1411 52.7992 97.4077 52.9921C97.8714 53.3847 98.4207 53.6632 99.0114 53.8053C99.6022 53.9475 100.218 53.9493 100.81 53.8107C100.621 54.2922 100.541 54.8095 100.576 55.3256C100.629 56.2186 101.346 57.1435 101.639 57.9833L101.708 58.5149L102.239 60.8006L103.669 60.6836L103.281 55.8997C103.281 55.8997 103.01 53.8851 104.77 53.9542C106.529 54.0233 109.022 55.8465 112.387 55.1395C112.939 55.0808 113.471 54.8992 113.944 54.608C114.179 54.4448 114.365 54.2203 114.481 53.9588C114.598 53.6972 114.64 53.4088 114.603 53.125Z" fill="white"/>
<path d="M95.7494 55.2352C95.7494 55.1927 96.1161 55.3628 96.7168 55.4532C97.4915 55.5743 98.2848 55.4575 98.9918 55.1183C99.6932 54.7648 100.273 54.2094 100.656 53.5236C100.948 52.9921 101.028 52.6147 101.07 52.6253C101.083 52.9696 100.998 53.3104 100.826 53.6087C100.476 54.3745 99.8718 54.9957 99.1161 55.3668C98.3603 55.7379 97.4994 55.836 96.6796 55.6445C96.3381 55.5952 96.0165 55.4537 95.7494 55.2352Z" fill="white"/>
<path d="M99.1832 57.9036C99.1513 57.9036 99.0397 57.6325 99.0875 57.1648C99.1708 56.5681 99.3869 55.9977 99.7201 55.4957C100.082 54.9057 100.443 54.4326 100.65 54.0233C100.748 53.8021 100.865 53.5904 101.001 53.3907C101.038 53.3907 101.001 53.6831 100.826 54.1083C100.574 54.6398 100.283 55.1516 99.954 55.6392C99.6417 56.116 99.4133 56.6428 99.2789 57.1967C99.1885 57.6166 99.2257 57.8983 99.1832 57.9036Z" fill="white"/>
<path d="M101.772 52.4765C101.841 52.4765 101.735 52.9815 101.347 53.4386C100.959 53.8957 100.496 54.0765 100.464 54.0127C100.432 53.9489 100.788 53.6725 101.134 53.2579C101.479 52.8433 101.703 52.4765 101.772 52.4765Z" fill="#FFC100"/>
</svg>
