<svg width="360" height="339" viewBox="0 0 360 339" fill="none" xmlns="http://www.w3.org/2000/svg">
<g filter="url(#filter0_d_0_232)">
<path d="M100.333 187.603C98.4858 187.087 96.7632 186.2 95.2697 184.997C93.7763 183.794 92.5431 182.3 91.6453 180.605C90.7475 178.911 90.2037 177.051 90.0472 175.14C89.8906 173.229 90.1245 171.306 90.7347 169.488C91.6864 166.665 93.5132 164.168 94.2956 161.293C95.1869 158.026 94.6586 154.558 94.1061 151.211C93.5536 147.864 92.997 144.416 93.8318 141.129C94.6666 137.842 97.292 134.765 100.688 134.535C103.805 134.33 106.696 136.669 108.007 139.492C109.318 142.315 109.322 145.622 109.015 148.767C108.709 151.913 108.116 155.014 108.301 158.147C108.681 164.495 112.237 170.468 111.818 176.811C111.6 180.114 110.322 182.227 108.136 184.711C106.249 186.857 103.111 188.264 100.333 187.607" fill="#F5F5F5"/>
<path d="M100.934 203.395C100.885 203.395 100.849 191.942 100.849 177.815C100.849 163.688 100.885 152.231 100.934 152.231C100.982 152.231 101.022 163.688 101.022 177.803C101.022 191.918 100.982 203.395 100.934 203.395Z" fill="white"/>
<path d="M106.62 172.516C106.648 172.553 105.41 173.573 103.845 174.791C102.28 176.009 100.998 176.964 100.97 176.928C100.942 176.892 102.18 175.872 103.74 174.654C105.301 173.436 106.588 172.48 106.62 172.516Z" fill="white"/>
<path d="M100.938 171.778C100.327 171.459 99.743 171.09 99.1914 170.677C98.6071 170.31 98.0553 169.893 97.542 169.431C98.1535 169.754 98.7375 170.126 99.2882 170.544C99.8715 170.909 100.423 171.322 100.938 171.778Z" fill="white"/>
<path d="M219.314 167.772C220.506 162.721 217.378 157.66 212.328 156.468C207.277 155.276 202.216 158.404 201.024 163.455C199.832 168.505 202.96 173.566 208.011 174.758C213.061 175.95 218.122 172.822 219.314 167.772Z" fill="#F5F5F5"/>
<path d="M210.42 186.675C210.411 186.604 210.411 186.533 210.42 186.462C210.42 186.296 210.42 186.095 210.4 185.849C210.4 185.284 210.375 184.518 210.359 183.586C210.331 181.65 210.287 179.025 210.242 176.126C210.198 173.226 210.178 170.572 210.19 168.665C210.19 167.709 210.19 166.935 210.214 166.403C210.214 166.157 210.214 165.951 210.234 165.79C210.233 165.716 210.239 165.643 210.254 165.572C210.272 165.643 210.279 165.716 210.275 165.79C210.275 165.951 210.275 166.157 210.295 166.403C210.295 166.967 210.319 167.733 210.335 168.665C210.367 170.601 210.408 173.226 210.452 176.126C210.496 179.025 210.521 181.675 210.509 183.586C210.509 184.542 210.509 185.312 210.48 185.849C210.48 186.095 210.48 186.296 210.46 186.462C210.458 186.535 210.445 186.607 210.42 186.675Z" fill="white"/>
<path d="M213.771 166.765C212.718 168.149 211.554 169.445 210.291 170.641C211.344 169.257 212.508 167.961 213.771 166.765Z" fill="white"/>
<path d="M246.711 148.646L239.803 162.579L241.863 162.66L236.012 173.734H239.085L234.29 183.57H261.096L255.196 173.734L258.023 173.609L252.365 162.543L254.458 162.418L246.711 148.646Z" fill="#F5F5F5"/>
<path d="M246.973 164.761C247.03 164.761 246.973 171.996 246.884 180.917C246.796 189.837 246.642 197.076 246.586 197.076C246.529 197.076 246.566 189.841 246.675 180.917C246.784 171.992 246.913 164.761 246.973 164.761Z" fill="white"/>
<path d="M250.957 168.931C249.696 170.161 248.338 171.287 246.896 172.298C248.16 171.072 249.518 169.946 250.957 168.931Z" fill="white"/>
<path d="M137.817 116.041L125.179 141.532L128.953 141.673L118.246 161.93H123.868L115.097 179.929H164.135L153.34 161.93L158.514 161.708L148.166 141.46L151.989 141.234L137.817 116.041Z" fill="#7536C6"/>
<path d="M139.955 145.609C140.011 145.609 139.919 157.252 139.749 171.609C139.58 185.966 139.39 197.604 139.346 197.604C139.301 197.604 139.378 185.966 139.552 171.605C139.725 157.244 139.894 145.609 139.955 145.609Z" fill="white"/>
<path d="M139.697 168.963C139.417 168.869 139.147 168.747 138.89 168.6L136.95 167.641L135.003 166.701C134.72 166.588 134.45 166.446 134.196 166.277C134.491 166.337 134.777 166.433 135.047 166.564C135.563 166.774 136.257 167.08 137.027 167.451C137.797 167.822 138.467 168.189 138.947 168.467C139.217 168.599 139.469 168.766 139.697 168.963Z" fill="white"/>
<path d="M145.754 149.751C145.709 149.874 145.647 149.989 145.568 150.094C145.439 150.304 145.242 150.606 144.992 150.973C144.496 151.707 143.782 152.707 142.951 153.796C142.12 154.885 141.338 155.812 140.753 156.486C140.463 156.821 140.221 157.087 140.048 157.264C139.874 157.442 139.777 157.542 139.765 157.53C140.033 157.132 140.325 156.751 140.64 156.389C141.193 155.695 141.959 154.74 142.786 153.667C143.613 152.594 144.342 151.614 144.871 150.904C145.139 150.501 145.434 150.116 145.754 149.751Z" fill="white"/>
<path d="M223.28 165.487C231.632 165.487 238.403 158.716 238.403 150.364C238.403 142.012 231.632 135.241 223.28 135.241C214.928 135.241 208.157 142.012 208.157 150.364C208.157 158.716 214.928 165.487 223.28 165.487Z" fill="#7536C6"/>
<path d="M223.381 185.925C223.321 185.925 223.276 177.94 223.276 168.096C223.276 158.252 223.321 150.263 223.381 150.263C223.442 150.263 223.486 158.244 223.486 168.096C223.486 177.948 223.438 185.925 223.381 185.925Z" fill="white"/>
<path d="M229.075 152.207C229.12 152.243 227.898 153.675 226.349 155.397C224.801 157.119 223.526 158.486 223.47 158.45C224.324 157.34 225.234 156.274 226.196 155.256C227.103 154.191 228.064 153.173 229.075 152.207Z" fill="white"/>
<path d="M113.972 145.876L106.071 161.809L108.43 161.898L101.74 174.561H105.253L99.7721 185.808H130.421L123.674 174.561L126.905 174.42L120.44 161.765L122.828 161.624L113.972 145.876Z" fill="#FFC100"/>
<path d="M115.306 164.358C115.363 164.358 115.306 171.109 115.189 179.428C115.073 187.748 114.923 194.495 114.867 194.495C114.81 194.495 114.867 187.748 114.98 179.424C115.093 171.101 115.25 164.358 115.306 164.358Z" fill="white"/>
<path d="M119.065 168.455C118.541 169.301 117.959 170.109 117.323 170.875C116.742 171.687 116.105 172.456 115.415 173.178C115.939 172.332 116.521 171.523 117.157 170.758C117.737 169.945 118.374 169.176 119.065 168.455Z" fill="white"/>
<path d="M115.234 172.847C114.611 172.493 114.023 172.08 113.48 171.613C112.896 171.202 112.356 170.733 111.866 170.214C112.488 170.568 113.074 170.981 113.617 171.448C114.2 171.861 114.741 172.329 115.234 172.847Z" fill="white"/>
<path d="M115.024 180.662C114.344 180.173 113.689 179.648 113.064 179.09C111.992 178.215 111.096 177.537 111.129 177.477C111.873 177.873 112.567 178.356 113.197 178.916C113.872 179.426 114.485 180.012 115.024 180.662Z" fill="white"/>
<path d="M119.392 175.831C118.811 176.719 118.172 177.568 117.48 178.372C116.845 179.224 116.152 180.033 115.407 180.792C115.988 179.904 116.627 179.055 117.319 178.251C117.954 177.398 118.647 176.59 119.392 175.831Z" fill="white"/>
<path d="M178.331 114.553C178.636 114.422 178.896 114.204 179.079 113.926C179.261 113.649 179.359 113.324 179.359 112.992C179.399 112.762 179.389 112.527 179.329 112.301C179.269 112.076 179.16 111.866 179.011 111.687C178.862 111.507 178.676 111.362 178.466 111.262C178.255 111.161 178.026 111.107 177.792 111.104C177.559 111.101 177.328 111.148 177.115 111.243C176.902 111.337 176.712 111.477 176.558 111.653C176.404 111.828 176.29 112.034 176.223 112.258C176.157 112.482 176.14 112.717 176.173 112.948C176.161 113.286 176.249 113.62 176.427 113.907C176.605 114.195 176.865 114.422 177.174 114.561C174.722 114.908 174.81 117.569 174.81 117.569L180.601 117.646C180.601 117.646 180.759 114.94 178.331 114.553Z" fill="white"/>
<path d="M211.924 122.824C211.926 123.127 211.837 123.423 211.67 123.676C211.503 123.928 211.265 124.125 210.986 124.242C210.707 124.359 210.399 124.39 210.102 124.332C209.805 124.274 209.532 124.129 209.318 123.916C209.103 123.702 208.957 123.43 208.897 123.133C208.838 122.837 208.867 122.529 208.983 122.249C209.098 121.969 209.294 121.73 209.546 121.562C209.797 121.394 210.093 121.304 210.396 121.304C210.8 121.304 211.187 121.464 211.474 121.749C211.76 122.034 211.922 122.42 211.924 122.824Z" fill="white"/>
<path d="M214.666 121.296C215.508 121.296 216.191 120.613 216.191 119.771C216.191 118.929 215.508 118.247 214.666 118.247C213.824 118.247 213.142 118.929 213.142 119.771C213.142 120.613 213.824 121.296 214.666 121.296Z" fill="white"/>
<path d="M216.203 126.236C216.179 126.533 216.068 126.816 215.886 127.051C215.703 127.286 215.456 127.463 215.174 127.56C214.893 127.657 214.589 127.67 214.301 127.597C214.012 127.524 213.751 127.369 213.549 127.15C213.347 126.931 213.213 126.658 213.164 126.364C213.115 126.071 213.152 125.769 213.272 125.496C213.391 125.224 213.587 124.992 213.836 124.829C214.086 124.666 214.377 124.579 214.674 124.578C215.095 124.6 215.491 124.786 215.776 125.096C216.062 125.406 216.215 125.815 216.203 126.236Z" fill="white"/>
<path d="M214.227 126.042C214.162 126.139 213.146 125.562 211.96 124.756C210.775 123.949 209.863 123.215 209.944 123.119C210.025 123.022 211.021 123.603 212.21 124.409C213.4 125.216 214.291 125.946 214.227 126.042Z" fill="white"/>
<path d="M214.344 119.662C214.416 119.755 213.63 120.469 212.593 121.276C211.557 122.082 210.658 122.659 210.577 122.566C210.496 122.473 211.287 121.76 212.323 120.953C213.36 120.146 214.279 119.574 214.344 119.662Z" fill="white"/>
<path d="M224.978 97.9983C224.938 97.8388 224.919 97.6748 224.922 97.5103C224.915 97.3155 224.893 97.1213 224.857 96.9296C224.824 96.6643 224.773 96.4016 224.704 96.1432C224.535 95.4352 224.264 94.7558 223.897 94.1268C223.411 93.2931 222.769 92.5607 222.006 91.9693C221.094 91.2458 220.025 90.7471 218.885 90.5135C217.579 90.2455 216.226 90.3304 214.965 90.7595C214.283 90.9819 213.641 91.3099 213.061 91.7314C212.757 91.9431 212.469 92.1762 212.198 92.429C211.932 92.6937 211.683 92.9752 211.452 93.2719C210.484 94.5225 209.942 96.0497 209.903 97.6305C209.865 99.2114 210.333 100.763 211.238 102.059C211.454 102.368 211.689 102.662 211.944 102.938C212.202 103.204 212.478 103.45 212.771 103.676C213.33 104.126 213.956 104.485 214.626 104.741C215.786 105.201 217.043 105.363 218.281 105.211C219.52 105.06 220.701 104.6 221.716 103.874C222.5 103.317 223.172 102.617 223.696 101.809C224.096 101.199 224.403 100.533 224.607 99.8332C224.687 99.5794 224.75 99.3208 224.797 99.0589C224.84 98.8676 224.871 98.6736 224.889 98.4782C224.895 98.3154 224.923 98.1541 224.97 97.9983C224.988 98.1605 224.988 98.3241 224.97 98.4863C224.97 98.685 224.952 98.8834 224.918 99.0791C224.885 99.3515 224.833 99.6211 224.76 99.8857C224.578 100.612 224.285 101.306 223.889 101.942C223.312 102.885 222.54 103.692 221.625 104.311C220.709 104.929 219.672 105.344 218.582 105.528C217.204 105.764 215.787 105.625 214.481 105.124C213.777 104.852 213.119 104.474 212.529 104.003C212.223 103.764 211.932 103.505 211.658 103.229C211.387 102.937 211.137 102.627 210.908 102.301C209.947 100.935 209.45 99.2963 209.49 97.6263C209.531 95.9564 210.107 94.3437 211.134 93.0259C211.381 92.7112 211.65 92.4147 211.94 92.1387C212.226 91.8738 212.529 91.6285 212.848 91.4047C213.464 90.9671 214.144 90.627 214.864 90.3965C216.192 89.9563 217.614 89.8811 218.981 90.1787C220.061 90.4148 221.078 90.8796 221.963 91.5419C222.848 92.2042 223.58 93.0485 224.111 94.018C224.474 94.6713 224.733 95.3776 224.877 96.111C224.939 96.3763 224.979 96.6459 224.998 96.9175C225.023 97.1141 225.031 97.3124 225.023 97.5103C225.025 97.6741 225.01 97.8377 224.978 97.9983Z" fill="white"/>
<path d="M223.45 93.2235C223.45 93.2477 223.329 93.3687 223.046 93.5663L222.571 93.9212C222.474 93.9897 222.369 94.0623 222.256 94.1349L221.881 94.3325C220.514 95.1113 218.961 95.5017 217.388 95.4617L216.711 95.4335L216.058 95.3326C215.949 95.3326 215.844 95.3004 215.739 95.2762L215.437 95.1955C215.235 95.1391 215.033 95.0947 214.848 95.0342C214.183 94.8092 213.543 94.5145 212.94 94.1551C211.92 93.5381 211.42 92.9735 211.46 92.9452C211.501 92.917 212.057 93.3485 213.073 93.905C213.675 94.2149 214.302 94.4713 214.949 94.6713C215.13 94.7237 215.32 94.764 215.513 94.8164L215.808 94.889L216.11 94.9334L216.735 95.0262L217.38 95.0504C218.889 95.0837 220.382 94.7488 221.732 94.0744L222.111 93.9091C222.228 93.8486 222.333 93.7841 222.433 93.7276L222.954 93.4413C223.26 93.2759 223.43 93.1993 223.45 93.2235Z" fill="white"/>
<path d="M211.226 102.511C211.226 102.511 211.347 102.37 211.63 102.172L212.122 101.817C212.218 101.753 212.319 101.676 212.432 101.604L212.811 101.41C214.176 100.63 215.728 100.238 217.3 100.277L217.981 100.309L218.635 100.41L218.949 100.462L219.256 100.543C219.457 100.599 219.659 100.648 219.844 100.708C220.502 100.933 221.135 101.226 221.732 101.583C222.756 102.205 223.256 102.769 223.216 102.793C223.175 102.817 222.619 102.366 221.603 101.833C221.001 101.522 220.374 101.264 219.727 101.063C219.546 101.011 219.352 100.97 219.159 100.922L218.868 100.849L218.562 100.805L217.941 100.712L217.292 100.684C215.785 100.653 214.293 100.988 212.944 101.66L212.561 101.825C212.448 101.886 212.339 101.954 212.239 102.007L211.718 102.297C211.412 102.463 211.242 102.535 211.226 102.511Z" fill="white"/>
<path d="M224.97 98.1758C224.97 98.2887 221.546 98.3008 217.308 98.2C213.069 98.0991 209.674 97.9177 209.678 97.7967C209.682 97.6757 213.102 97.6676 217.32 97.7725C221.538 97.8773 224.974 98.0588 224.97 98.1758Z" fill="white"/>
<path d="M216.981 105.443C216.864 105.443 216.856 102.019 216.957 97.8007C217.058 93.5824 217.235 90.1707 217.36 90.1707C217.485 90.1707 217.489 93.5945 217.384 97.833C217.28 102.071 217.098 105.447 216.981 105.443Z" fill="white"/>
<path d="M216.981 105.431C216.953 105.475 216.11 104.906 215.142 103.612C214.574 102.853 214.113 102.018 213.775 101.132C213.363 100.04 213.162 98.8792 213.182 97.712C213.209 96.5438 213.466 95.3924 213.94 94.3245C214.327 93.4607 214.829 92.6535 215.433 91.9249C216.461 90.6788 217.308 90.1303 217.336 90.1747C217.364 90.2191 216.61 90.8482 215.666 92.1064C215.115 92.8399 214.655 93.6375 214.295 94.4817C213.858 95.5027 213.618 96.5976 213.59 97.708C213.57 98.8239 213.75 99.9343 214.122 100.987C214.434 101.85 214.853 102.671 215.368 103.43C216.267 104.741 217.025 105.386 216.981 105.431Z" fill="white"/>
<path d="M217.526 90.1747C217.554 90.1303 218.393 90.699 219.365 91.9935C219.932 92.7522 220.392 93.5854 220.732 94.4696C221.144 95.563 221.344 96.7251 221.32 97.8935C221.293 99.0629 221.031 100.215 220.55 101.281C220.163 102.151 219.662 102.965 219.058 103.701C218.03 104.943 217.183 105.495 217.155 105.451C217.126 105.407 217.88 104.777 218.824 103.519C219.376 102.786 219.836 101.988 220.195 101.144C220.632 100.123 220.872 99.028 220.901 97.9177C220.921 96.8004 220.741 95.6887 220.369 94.635C220.056 93.7795 219.638 92.9666 219.123 92.2153C218.239 90.8603 217.481 90.2191 217.526 90.1747Z" fill="white"/>
<path d="M237.46 128.938H256.482C256.482 128.938 256.482 124.582 254.236 124.582C253.432 124.556 252.644 124.811 252.007 125.303C251.371 125.796 250.927 126.495 250.752 127.28C250.752 127.28 250.752 119.154 246.663 120.344C242.791 121.473 242.351 126.675 242.351 126.675C242.351 126.675 241.658 124.062 239.561 125.534C237.464 127.006 237.46 128.938 237.46 128.938Z" fill="#7536C6"/>
<path d="M106.62 104.786H135.087C135.087 104.786 135.087 98.2685 131.728 98.2685C130.524 98.2285 129.344 98.6093 128.391 99.3454C127.438 100.081 126.771 101.127 126.505 102.301C126.505 102.301 126.505 90.1384 120.388 91.9209C114.593 93.6107 113.935 101.398 113.935 101.398C113.935 101.398 112.895 97.4821 109.753 99.6881C106.612 101.894 106.62 104.786 106.62 104.786Z" fill="#7536C6"/>
<path d="M252.026 201.722C252.026 201.722 251.917 201.613 251.716 201.395L250.824 200.419C250.018 199.592 248.832 198.35 247.163 196.911C245.139 195.158 242.973 193.579 240.686 192.188C239.262 191.316 237.79 190.523 236.278 189.813C230.686 187.17 224.593 185.754 218.409 185.659C213.472 185.588 208.564 186.421 203.927 188.115C199.019 189.873 194.414 192.922 189.744 196.136C187.409 197.749 185.05 199.411 182.565 200.976C180.061 202.588 177.41 203.961 174.649 205.077C171.874 206.19 168.926 206.81 165.938 206.908C163.037 206.963 160.146 206.564 157.368 205.726C154.699 204.912 152.093 203.901 149.573 202.702C147.097 201.552 144.734 200.334 142.379 199.181C137.717 196.882 133.152 194.858 128.599 193.959C128.034 193.842 127.465 193.761 126.905 193.668L126.066 193.567C125.788 193.527 125.508 193.503 125.227 193.495L123.574 193.406C123.025 193.406 122.485 193.43 121.961 193.438C121.694 193.438 121.424 193.438 121.154 193.471L120.347 193.551C119.827 193.616 119.307 193.636 118.799 193.733L117.299 194.003C116.799 194.08 116.323 194.233 115.847 194.346C112.412 195.233 109.12 196.6 106.067 198.407C103.754 199.752 101.544 201.268 99.4576 202.944C97.7477 204.331 96.4773 205.48 95.6345 206.275L94.6787 207.186L94.348 207.493C94.348 207.493 94.4529 207.38 94.6626 207.17L95.6022 206.242C96.441 205.436 97.7033 204.283 99.4051 202.879C101.489 201.19 103.697 199.66 106.011 198.302C109.068 196.481 112.367 195.1 115.811 194.201C116.29 194.088 116.766 193.934 117.266 193.854L118.779 193.58C119.287 193.483 119.811 193.459 120.335 193.394L121.142 193.309C121.408 193.285 121.678 193.289 121.948 193.277C122.489 193.277 123.033 193.233 123.586 193.241L125.251 193.325C125.532 193.334 125.812 193.358 126.09 193.398L126.937 193.499C127.502 193.592 128.074 193.668 128.643 193.789C133.22 194.689 137.805 196.713 142.475 199.008C144.814 200.157 147.194 201.371 149.666 202.52C152.177 203.714 154.773 204.72 157.433 205.529C160.194 206.358 163.068 206.753 165.95 206.698C168.915 206.598 171.839 205.983 174.592 204.879C177.345 203.766 179.988 202.397 182.485 200.79C184.965 199.238 187.324 197.564 189.659 195.951C194.313 192.725 198.934 189.68 203.879 187.917C208.537 186.22 213.467 185.391 218.425 185.47C224.632 185.573 230.745 187.008 236.351 189.676C237.865 190.391 239.338 191.191 240.763 192.071C243.045 193.473 245.203 195.066 247.215 196.834C248.881 198.282 250.038 199.536 250.844 200.375L251.72 201.363C251.929 201.597 252.026 201.722 252.026 201.722Z" fill="white"/>
<path d="M254.72 240.791H254.171H252.558L246.32 240.812L223.216 240.848H223.107L223.147 240.747C223.147 240.699 223.184 240.642 223.208 240.586C223.425 239.303 223.667 237.88 223.913 236.416L224.038 236.496L220.832 238.771L220.703 238.86V238.702C220.703 235.343 220.703 231.798 220.703 228.1L220.881 228.124L217.501 239.989L217.441 240.199L217.328 240.013L214.299 235.174L214.477 235.109C214.694 236.876 214.932 238.811 215.17 240.755V240.868H215.053C205.326 240.824 194.756 240.868 183.799 240.848H150.73H135.773H122.981L122.174 240.803H122.11V240.739C121.9 239.448 121.706 238.239 121.513 237.053L121.658 237.089L120.162 239.162L120.077 239.275L120.021 239.15C119.154 237.182 118.331 235.327 117.545 233.544L117.686 233.516C117.629 235.633 117.581 237.585 117.532 239.444V239.569L117.432 239.497L113.935 237.118L114.028 237.041L115.641 240.767L115.677 240.848H115.585C110.124 240.795 105.821 240.82 102.885 240.799H99.5301H98.6711H98.3807H98.6711H99.5301H102.885C105.821 240.799 110.144 240.759 115.593 240.799L115.536 240.88C115.04 239.743 114.52 238.549 113.923 237.162L113.834 236.96L114.016 237.085L117.516 239.452L117.407 239.509C117.452 237.65 117.5 235.698 117.549 233.581V233.25L117.682 233.553C118.488 235.331 119.295 237.182 120.17 239.15H120.033L121.529 237.077L121.646 236.916L121.678 237.109C121.872 238.299 122.081 239.505 122.279 240.795L122.202 240.723L123.009 240.767H135.789H150.747H183.815C194.777 240.767 205.342 240.747 215.074 240.795L214.973 240.908C214.735 238.948 214.497 237.013 214.283 235.262L214.231 234.823L214.465 235.198L217.489 240.037L217.316 240.061C218.497 235.94 219.631 231.968 220.707 228.201L220.885 227.588V228.225C220.885 231.923 220.885 235.484 220.885 238.827L220.756 238.759L223.982 236.492L224.139 236.384L224.107 236.569C223.857 238.029 223.611 239.452 223.389 240.739L223.329 240.9L223.216 240.715L246.32 240.747L252.558 240.767H254.171C254.534 240.783 254.72 240.791 254.72 240.791Z" fill="white"/>
<path d="M238.057 233.859C236.258 232.891 235.532 231.524 235.109 229.524C234.903 228.519 234.915 227.483 235.145 226.484C235.375 225.485 235.816 224.546 236.439 223.733C237.48 222.386 239.02 221.406 239.734 219.857C240.496 218.208 240.222 216.115 241.38 214.719C242.186 213.76 243.464 213.376 244.485 212.659C245.316 212.074 245.965 211.267 246.707 210.574C247.449 209.88 248.36 209.267 249.377 209.227C250.909 209.166 252.268 210.521 252.514 212.05C252.76 213.578 252.083 215.123 251.03 216.244C250.272 217.05 249.296 217.724 248.852 218.748C248.022 220.668 249.397 223.043 248.485 224.926C247.82 226.302 246.045 227.128 245.961 228.653C246 229.212 246.084 229.768 246.211 230.314C246.4 232.064 244.928 233.657 243.247 234.165C241.565 234.674 239.75 234.339 238.057 233.871" fill="#FFC100"/>
<path d="M246.788 215.711C246.744 215.793 246.691 215.868 246.63 215.937C246.505 216.099 246.34 216.3 246.142 216.558C245.945 216.816 245.662 217.147 245.384 217.546C245.106 217.946 244.763 218.377 244.441 218.897L243.912 219.704C243.731 219.982 243.565 220.289 243.384 220.595C243.005 221.208 242.662 221.894 242.291 222.612C241.519 224.184 240.86 225.809 240.319 227.475C239.797 229.147 239.393 230.853 239.109 232.581C239 233.387 238.883 234.141 238.839 234.859C238.815 235.214 238.774 235.561 238.758 235.896C238.742 236.23 238.738 236.545 238.726 236.851C238.69 237.46 238.726 238.013 238.726 238.501C238.726 238.989 238.746 239.404 238.77 239.743C238.795 240.082 238.803 240.332 238.815 240.529C238.82 240.622 238.82 240.715 238.815 240.808C238.789 240.718 238.774 240.626 238.77 240.533C238.75 240.336 238.722 240.074 238.69 239.751C238.657 239.428 238.617 238.993 238.609 238.505C238.601 238.017 238.557 237.46 238.581 236.847C238.581 236.541 238.581 236.218 238.601 235.888C238.621 235.557 238.649 235.206 238.67 234.843C238.71 234.121 238.819 233.359 238.92 232.552C239.193 230.81 239.594 229.09 240.121 227.407C240.664 225.731 241.331 224.099 242.118 222.523C242.497 221.805 242.848 221.119 243.231 220.506C243.42 220.2 243.59 219.893 243.775 219.615L244.316 218.809C244.65 218.292 245.001 217.861 245.291 217.474C245.582 217.087 245.852 216.76 246.078 216.502L246.598 215.905C246.655 215.835 246.718 215.77 246.788 215.711Z" fill="white"/>
<path d="M127.171 222.648C127.655 222.685 128.127 222.82 128.557 223.045C128.987 223.269 129.368 223.579 129.675 223.954C130.288 224.711 130.718 225.598 130.934 226.548C131.405 228.362 131.087 230.496 130.555 232.294C128.603 231.576 127.409 229.471 126.873 228.37C126.026 226.628 125.55 222.958 127.171 222.648Z" fill="#FFC100"/>
<path d="M133.357 234.512C133.068 234.053 132.904 233.526 132.884 232.983C132.863 232.441 132.986 231.903 133.24 231.423C133.502 230.95 133.854 230.534 134.277 230.197C134.7 229.861 135.185 229.612 135.704 229.463C135.937 229.371 136.188 229.331 136.438 229.346C136.688 229.36 136.931 229.429 137.152 229.548C137.338 229.691 137.482 229.881 137.569 230.099C137.657 230.317 137.684 230.554 137.648 230.786C137.571 231.25 137.373 231.685 137.075 232.048C136.112 233.331 134.942 234.395 133.341 234.512" fill="#FFC100"/>
<path d="M133.373 240.739C133.325 240.616 133.292 240.487 133.277 240.356C133.228 240.11 133.168 239.747 133.103 239.299C132.913 238.13 132.882 236.94 133.01 235.762C133.149 234.571 133.607 233.44 134.337 232.488C134.562 232.205 134.82 231.952 135.107 231.734C135.208 231.646 135.322 231.577 135.446 231.528C135.089 231.853 134.757 232.204 134.454 232.581C133.778 233.535 133.353 234.645 133.22 235.807C133.095 236.968 133.105 238.14 133.248 239.299C133.32 239.776 133.362 240.257 133.373 240.739Z" fill="white"/>
<path d="M127.78 225.39C127.895 225.576 127.992 225.771 128.07 225.975C128.244 226.354 128.474 226.906 128.78 227.588C129.365 228.959 130.139 230.871 130.946 233.004C131.752 235.137 132.434 237.085 132.906 238.501C133.139 239.211 133.309 239.787 133.446 240.186C133.521 240.389 133.576 240.598 133.611 240.812C133.513 240.618 133.431 240.417 133.365 240.211L132.764 238.549C132.26 237.146 131.555 235.206 130.748 233.077C129.941 230.947 129.187 229.044 128.639 227.64C128.373 226.975 128.155 226.431 127.99 225.999C127.904 225.802 127.834 225.598 127.78 225.39Z" fill="white"/>
<path d="M131.325 236.279C130.679 235.333 129.817 234.555 128.81 234.009C127.804 233.463 126.682 233.164 125.538 233.137C124.957 233.137 124.267 233.27 124.041 233.803C123.816 234.335 124.195 234.936 124.614 235.339C125.504 236.166 126.619 236.712 127.818 236.906C129.017 237.101 130.247 236.936 131.353 236.432" fill="#FFC100"/>
<path d="M126.538 234.581C126.663 234.561 126.791 234.561 126.917 234.581C127.063 234.589 127.209 234.608 127.352 234.637C127.547 234.664 127.739 234.703 127.929 234.754C128.424 234.88 128.905 235.056 129.365 235.279C129.925 235.556 130.455 235.891 130.946 236.279C131.428 236.68 131.867 237.13 132.256 237.622C132.568 238.028 132.838 238.464 133.063 238.924C133.152 239.098 133.231 239.277 133.297 239.461C133.355 239.591 133.402 239.726 133.438 239.864C133.483 239.982 133.511 240.105 133.523 240.231C133.482 240.231 133.333 239.727 132.93 238.973C132.691 238.534 132.414 238.117 132.103 237.726C131.338 236.767 130.375 235.985 129.28 235.432C128.834 235.206 128.368 235.021 127.889 234.879C127.07 234.666 126.534 234.621 126.538 234.581Z" fill="white"/>
<path d="M185.739 114.287L213.162 114.246C213.162 114.246 214.452 103.761 205.794 104.648C205.794 104.648 203.846 97.6112 197.245 98.9783C190.643 100.345 190.389 107.387 190.389 107.387C190.389 107.387 185.376 108.181 185.739 114.287Z" fill="#FFC100"/>
<path d="M200.1 110.819C200.101 110.942 200.065 111.064 199.996 111.167C199.928 111.27 199.831 111.351 199.717 111.399C199.603 111.447 199.477 111.46 199.355 111.436C199.234 111.412 199.122 111.353 199.034 111.266C198.946 111.179 198.886 111.067 198.862 110.946C198.838 110.825 198.85 110.699 198.897 110.584C198.944 110.47 199.024 110.372 199.127 110.303C199.23 110.234 199.351 110.197 199.475 110.197C199.557 110.197 199.638 110.213 199.714 110.244C199.79 110.275 199.858 110.32 199.917 110.378C199.975 110.436 200.021 110.504 200.052 110.58C200.084 110.656 200.1 110.737 200.1 110.819Z" fill="white"/>
<path d="M198.212 110.028C198.371 109.855 198.563 109.717 198.777 109.62C198.991 109.524 199.222 109.472 199.456 109.467C199.691 109.463 199.924 109.506 200.141 109.594C200.358 109.682 200.556 109.813 200.721 109.98C200.787 110.043 200.876 110.078 200.967 110.076C201.059 110.075 201.146 110.039 201.211 109.974C201.276 109.909 201.313 109.822 201.314 109.73C201.315 109.638 201.28 109.55 201.217 109.484C200.986 109.253 200.712 109.07 200.409 108.947C200.107 108.824 199.783 108.763 199.456 108.768C199.13 108.772 198.808 108.842 198.509 108.974C198.21 109.105 197.941 109.295 197.716 109.532C197.406 109.863 197.902 110.359 198.212 110.028Z" fill="white"/>
<path d="M196.083 107.133C196.996 106.287 198.186 105.802 199.43 105.769C200.696 105.746 201.922 106.208 202.858 107.06C203.193 107.366 203.689 106.87 203.358 106.56C202.285 105.582 200.879 105.048 199.426 105.068C197.997 105.106 196.631 105.663 195.583 106.637C195.244 106.935 195.74 107.443 196.083 107.133Z" fill="white"/>
<path d="M196.93 108.738C197.245 108.382 197.63 108.095 198.061 107.896C198.492 107.697 198.96 107.589 199.435 107.58C199.909 107.57 200.381 107.659 200.82 107.841C201.258 108.023 201.654 108.294 201.983 108.637C202.298 108.959 202.79 108.459 202.479 108.137C202.084 107.73 201.61 107.408 201.086 107.192C200.562 106.975 199.999 106.869 199.432 106.878C198.865 106.888 198.306 107.014 197.79 107.249C197.273 107.483 196.811 107.821 196.43 108.242C196.128 108.576 196.624 109.072 196.93 108.738Z" fill="white"/>
<path d="M198.825 115.295C198.769 115.295 198.721 115.069 198.721 114.791C198.721 114.513 198.765 114.287 198.825 114.287C198.886 114.287 198.93 114.513 198.93 114.791C198.93 115.069 198.882 115.295 198.825 115.295Z" fill="white"/>
<path d="M198.829 119.271C198.728 118.95 198.692 118.611 198.725 118.275C198.69 117.939 198.725 117.6 198.829 117.279C198.932 117.6 198.968 117.939 198.934 118.275C198.969 118.611 198.934 118.95 198.829 119.271Z" fill="white"/>
<path d="M198.838 123.256C198.732 122.935 198.695 122.596 198.729 122.26C198.696 121.924 198.732 121.585 198.834 121.263C198.936 121.585 198.971 121.924 198.938 122.26C198.975 122.595 198.94 122.934 198.838 123.256Z" fill="white"/>
<path d="M198.842 127.244C198.739 126.921 198.704 126.581 198.737 126.244C198.704 125.909 198.738 125.57 198.838 125.248C198.944 125.568 198.982 125.908 198.946 126.244C198.979 126.581 198.944 126.921 198.842 127.244Z" fill="white"/>
<path d="M197.837 130.24C198.163 130.138 198.506 130.101 198.846 130.132L198.741 130.236V129.833C198.741 129.712 198.741 129.603 198.761 129.515C198.781 129.333 198.809 129.22 198.838 129.22C198.866 129.22 198.894 129.333 198.91 129.515C198.91 129.603 198.93 129.712 198.934 129.833V130.023V130.216C198.89 130.265 199.039 130.111 198.829 130.321C198.497 130.363 198.159 130.336 197.837 130.24Z" fill="white"/>
<path d="M194.204 130.253C194.495 130.151 194.805 130.114 195.111 130.144C195.418 130.109 195.728 130.145 196.019 130.249C195.422 130.386 194.801 130.386 194.204 130.249V130.253Z" fill="white"/>
<path d="M190.55 130.265C190.841 130.158 191.153 130.121 191.462 130.156C191.768 130.123 192.077 130.157 192.369 130.257C192.079 130.363 191.768 130.4 191.462 130.365C191.154 130.398 190.843 130.364 190.55 130.265Z" fill="white"/>
<path d="M186.921 130.273C187.212 130.171 187.522 130.135 187.828 130.168C188.136 130.133 188.447 130.167 188.739 130.269C188.447 130.371 188.136 130.408 187.828 130.378C187.522 130.412 187.211 130.377 186.921 130.273Z" fill="white"/>
<path d="M184.098 131.289C183.995 130.963 183.959 130.62 183.993 130.281C184.203 130.071 184.053 130.224 184.098 130.176H184.501C184.622 130.176 184.731 130.176 184.82 130.2C185.001 130.2 185.114 130.244 185.114 130.273C185.114 130.301 185.001 130.325 184.82 130.345C184.731 130.345 184.622 130.345 184.501 130.37H184.311H184.098C184.142 130.325 183.993 130.474 184.199 130.265C184.238 130.609 184.204 130.959 184.098 131.289Z" fill="white"/>
<path d="M184.098 135.39C183.958 134.715 183.958 134.017 184.098 133.342C184.238 134.017 184.238 134.715 184.098 135.39Z" fill="white"/>
<path d="M184.098 139.492C183.958 138.816 183.958 138.119 184.098 137.443C184.238 138.119 184.238 138.816 184.098 139.492Z" fill="white"/>
<path d="M184.098 143.593C183.958 142.917 183.958 142.22 184.098 141.544C184.238 142.22 184.238 142.917 184.098 143.593Z" fill="white"/>
<path d="M184.098 146.65C184.041 146.65 183.993 146.424 183.993 146.146C183.993 145.868 184.041 145.642 184.098 145.642C184.154 145.642 184.203 145.868 184.203 146.146C184.203 146.424 184.166 146.65 184.098 146.65Z" fill="white"/>
<path d="M154.336 237.396L155.844 234.601L150.626 231.742L148.375 235.807L148.686 236.004C150.081 236.876 155.844 240.328 156.965 240.562C158.219 240.824 154.336 237.396 154.336 237.396Z" fill="#FFC100"/>
<path d="M150.291 236.803C150.452 236.32 150.432 235.796 150.235 235.327C150.04 234.863 149.679 234.49 149.222 234.278L148.416 235.734L150.291 236.803Z" fill="#FFC100"/>
<path d="M156.191 239.15C156.191 239.15 157.498 240.449 157.163 240.598C156.828 240.747 150.876 237.48 148.375 235.807L148.448 235.694L155.36 239.569C155.36 239.569 155.868 238.997 156.191 239.15Z" fill="#FFC100"/>
<path d="M148.367 235.646L148.452 235.706L148.702 235.863L149.626 236.424C150.412 236.892 151.505 237.525 152.727 238.198C153.949 238.872 155.066 239.453 155.884 239.864C156.264 240.057 156.59 240.215 156.852 240.348L157.118 240.473L157.211 240.513C157.211 240.513 157.183 240.493 157.122 240.461L156.864 240.324L155.905 239.819C155.098 239.416 153.981 238.807 152.759 238.134C151.537 237.46 150.444 236.835 149.654 236.38L148.714 235.839L148.46 235.694L148.367 235.646Z" fill="white"/>
<path d="M155.316 239.646C155.444 239.513 155.586 239.394 155.739 239.291C155.909 239.209 156.088 239.146 156.272 239.102C156.076 239.073 155.876 239.118 155.711 239.227C155.531 239.311 155.389 239.461 155.316 239.646Z" fill="white"/>
<path d="M154.203 238.021C154.203 238.041 154.336 237.993 154.477 237.912C154.618 237.831 154.727 237.759 154.719 237.739C154.62 237.753 154.526 237.79 154.445 237.847C154.304 237.928 154.195 238.005 154.203 238.021Z" fill="white"/>
<path d="M153.904 237.569C153.988 237.582 154.074 237.574 154.154 237.545C154.292 237.513 154.396 237.472 154.392 237.452C154.307 237.439 154.22 237.447 154.138 237.476C154.005 237.509 153.9 237.549 153.904 237.569Z" fill="white"/>
<path d="M153.908 236.928C153.908 236.928 154.013 237.029 154.163 237.113C154.248 237.174 154.346 237.216 154.449 237.234C154.449 237.234 154.344 237.134 154.195 237.049C154.109 236.988 154.012 236.947 153.908 236.928Z" fill="white"/>
<path d="M154.005 236.533C154.065 236.64 154.155 236.729 154.263 236.787C154.359 236.863 154.476 236.908 154.598 236.916C154.598 236.896 154.461 236.831 154.3 236.726C154.138 236.621 154.021 236.517 154.005 236.533Z" fill="white"/>
<path d="M154.63 237.666C154.733 237.744 154.847 237.805 154.969 237.847C155.1 237.899 155.235 237.938 155.372 237.964C155.454 237.983 155.538 237.992 155.622 237.993C155.675 237.99 155.725 237.969 155.763 237.932C155.782 237.91 155.794 237.883 155.797 237.854C155.801 237.826 155.796 237.797 155.784 237.771C155.723 237.685 155.645 237.614 155.554 237.563C155.462 237.512 155.361 237.482 155.257 237.475C155.152 237.468 155.048 237.484 154.95 237.523C154.853 237.562 154.766 237.621 154.695 237.698C154.65 237.747 154.63 237.779 154.634 237.783C154.726 237.699 154.831 237.631 154.945 237.581C155.073 237.531 155.214 237.521 155.348 237.553C155.428 237.565 155.506 237.592 155.575 237.635C155.644 237.677 155.704 237.733 155.751 237.799C155.78 237.868 155.727 237.92 155.647 237.92C155.569 237.921 155.492 237.915 155.417 237.9C155.28 237.876 155.145 237.842 155.013 237.799C154.763 237.722 154.658 237.654 154.63 237.666Z" fill="white"/>
<path d="M154.707 237.73C154.786 237.681 154.846 237.605 154.876 237.517C154.914 237.423 154.928 237.322 154.917 237.222C154.916 237.157 154.899 237.093 154.867 237.036C154.834 236.98 154.787 236.933 154.731 236.9C154.694 236.888 154.653 236.892 154.619 236.91C154.584 236.928 154.558 236.959 154.546 236.997C154.522 237.054 154.513 237.116 154.517 237.178C154.521 237.276 154.538 237.374 154.566 237.468C154.584 237.556 154.625 237.638 154.683 237.706C154.664 237.622 154.641 237.538 154.614 237.456C154.596 237.365 154.586 237.271 154.586 237.178C154.586 237.081 154.618 236.936 154.711 236.968C154.804 237.001 154.836 237.134 154.852 237.23C154.863 237.321 154.855 237.413 154.828 237.501C154.795 237.581 154.755 237.658 154.707 237.73Z" fill="white"/>
<path d="M149.259 234.262C149.259 234.262 149.416 234.331 149.634 234.488C149.921 234.692 150.148 234.971 150.287 235.295C150.419 235.622 150.46 235.979 150.404 236.327C150.359 236.593 150.287 236.73 150.299 236.73C150.311 236.73 150.323 236.698 150.355 236.626C150.399 236.526 150.432 236.422 150.452 236.315C150.527 235.957 150.492 235.584 150.351 235.246C150.205 234.917 149.967 234.637 149.666 234.44C149.573 234.382 149.476 234.332 149.375 234.291C149.339 234.274 149.299 234.264 149.259 234.262Z" fill="white"/>
<path d="M150.989 232.403C150.759 232.741 150.548 233.091 150.355 233.452C150.147 233.801 149.957 234.162 149.787 234.532C150.017 234.196 150.228 233.847 150.42 233.488C150.632 233.139 150.822 232.776 150.989 232.403Z" fill="white"/>
<path d="M151.227 236.654C151.442 236.851 151.684 237.018 151.944 237.15C152.195 237.305 152.467 237.425 152.751 237.505C152.751 237.505 152.408 237.319 151.993 237.101C151.577 236.884 151.239 236.638 151.227 236.654Z" fill="white"/>
<path d="M150.222 236.093C150.222 236.093 150.222 236.178 150.222 236.275C150.222 236.371 150.198 236.452 150.222 236.46C150.247 236.468 150.295 236.396 150.303 236.283C150.311 236.17 150.222 236.085 150.222 236.093Z" fill="white"/>
<path d="M150.081 235.4C150.061 235.4 150.081 235.48 150.081 235.565C150.081 235.65 150.142 235.71 150.162 235.706C150.182 235.702 150.162 235.629 150.162 235.545C150.162 235.46 150.102 235.395 150.081 235.4Z" fill="white"/>
<path d="M149.65 234.879C149.65 234.899 149.714 234.936 149.775 235.004C149.835 235.073 149.872 235.145 149.892 235.141C149.912 235.137 149.892 235.041 149.831 234.956C149.771 234.871 149.654 234.859 149.65 234.879Z" fill="white"/>
<path d="M149.315 234.561C149.315 234.561 149.315 234.617 149.351 234.658C149.388 234.698 149.424 234.722 149.44 234.706C149.456 234.69 149.44 234.649 149.404 234.609C149.367 234.569 149.331 234.549 149.315 234.561Z" fill="white"/>
<path d="M148.404 233.432L156.57 237.222L171.193 211.126C173.1 204.242 174.939 180.009 174.939 180.009L164.353 180.816C164.353 180.816 162.72 198.213 160.159 207.178L148.404 233.432Z" fill="white"/>
<path d="M157.856 234.666C157.428 234.534 157.011 234.369 156.61 234.17C155.856 233.839 154.816 233.363 153.67 232.835C152.525 232.306 151.501 231.814 150.759 231.447C150.348 231.269 149.953 231.057 149.577 230.814C150.003 230.948 150.418 231.114 150.819 231.31C151.577 231.641 152.618 232.117 153.759 232.645C154.9 233.173 155.937 233.669 156.675 234.036C157.085 234.215 157.48 234.425 157.856 234.666Z" fill="#373737"/>
<path opacity="0.2" d="M165.357 187.946L171.915 207.839L172.745 203.428L165.357 187.946Z" fill="#373737"/>
<path d="M197.003 235.714L195.341 233.008L190.248 236.085L192.635 240.074L192.962 239.9C194.418 239.13 200.293 235.867 201.06 235.024C201.899 234.077 197.003 235.714 197.003 235.714Z" fill="#FFC100"/>
<path d="M194.442 238.916C194.107 238.532 193.641 238.285 193.135 238.222C192.638 238.16 192.134 238.285 191.724 238.573L192.583 239.997L194.442 238.916Z" fill="#FFC100"/>
<path d="M199.422 234.988C199.422 234.988 201.205 234.512 201.165 234.875C201.124 235.238 195.313 238.747 192.611 240.074L192.551 239.953L199.37 235.92C199.37 235.92 199.144 235.182 199.422 234.988Z" fill="#FFC100"/>
<path d="M192.478 239.997L192.571 239.957C192.647 239.912 192.736 239.868 192.833 239.819L193.781 239.299C194.587 238.856 195.676 238.227 196.87 237.509C198.063 236.791 199.132 236.113 199.898 235.613L200.802 235.016L201.044 234.851L201.124 234.791C201.092 234.802 201.062 234.818 201.035 234.839L200.785 234.992L199.87 235.573C199.096 236.061 198.027 236.726 196.833 237.448C195.64 238.17 194.547 238.799 193.756 239.255L192.817 239.795L192.563 239.94L192.478 239.997Z" fill="white"/>
<path d="M199.422 235.996C199.294 235.645 199.294 235.259 199.422 234.908C199.3 235.062 199.239 235.255 199.249 235.452C199.239 235.649 199.3 235.842 199.422 235.996Z" fill="white"/>
<path d="M197.462 236.142C197.498 236.049 197.512 235.95 197.503 235.851C197.503 235.686 197.503 235.557 197.475 235.557C197.436 235.649 197.421 235.748 197.43 235.847C197.416 235.946 197.427 236.048 197.462 236.142Z" fill="white"/>
<path d="M196.918 236.174C196.918 236.174 196.983 236.077 197.023 235.944C197.057 235.865 197.071 235.779 197.063 235.694C197.063 235.694 196.995 235.791 196.954 235.924C196.914 236.057 196.898 236.166 196.918 236.174Z" fill="white"/>
<path d="M196.366 235.847C196.366 235.867 196.503 235.811 196.652 235.722C196.801 235.633 196.91 235.553 196.902 235.533C196.798 235.554 196.7 235.598 196.616 235.662C196.466 235.746 196.358 235.831 196.366 235.847Z" fill="white"/>
<path d="M196.071 235.565C196.195 235.569 196.317 235.537 196.422 235.472C196.599 235.379 196.716 235.258 196.7 235.246C196.592 235.291 196.488 235.345 196.39 235.408C196.279 235.451 196.173 235.503 196.071 235.565Z" fill="white"/>
<path d="M197.366 235.593C197.485 235.547 197.596 235.48 197.692 235.396C197.801 235.307 197.902 235.21 197.995 235.105C198.051 235.043 198.101 234.976 198.144 234.904C198.169 234.858 198.177 234.805 198.164 234.754C198.154 234.727 198.137 234.703 198.114 234.685C198.091 234.667 198.064 234.656 198.035 234.653C197.874 234.667 197.722 234.737 197.606 234.85C197.489 234.963 197.416 235.113 197.398 235.275C197.387 235.369 197.395 235.465 197.422 235.557C197.43 235.592 197.445 235.625 197.467 235.654C197.448 235.531 197.448 235.406 197.467 235.283C197.488 235.152 197.547 235.03 197.636 234.932C197.738 234.812 197.883 234.736 198.039 234.722C198.116 234.722 198.132 234.803 198.096 234.875C198.056 234.943 198.01 235.006 197.959 235.065C197.872 235.168 197.777 235.265 197.676 235.355C197.483 235.508 197.358 235.585 197.366 235.593Z" fill="white"/>
<path d="M197.458 235.557C197.458 235.557 197.458 235.448 197.362 235.307C197.299 235.228 197.219 235.164 197.128 235.121C197.07 235.091 197.006 235.075 196.94 235.075C196.875 235.075 196.811 235.091 196.753 235.121C196.726 235.15 196.711 235.187 196.711 235.226C196.711 235.265 196.726 235.303 196.753 235.331C196.791 235.38 196.841 235.419 196.898 235.444C196.982 235.492 197.073 235.527 197.168 235.549C197.255 235.578 197.348 235.585 197.438 235.569C197.438 235.569 197.337 235.549 197.184 235.5C197.096 235.472 197.01 235.435 196.93 235.387C196.841 235.347 196.737 235.238 196.809 235.174C196.856 235.151 196.907 235.139 196.958 235.139C197.01 235.139 197.061 235.151 197.108 235.174C197.192 235.207 197.268 235.259 197.329 235.327C197.379 235.4 197.422 235.476 197.458 235.557Z" fill="white"/>
<path d="M191.76 238.541C191.76 238.541 191.897 238.44 192.143 238.327C192.465 238.182 192.821 238.127 193.172 238.17C193.518 238.217 193.845 238.356 194.119 238.573C194.329 238.747 194.426 238.888 194.438 238.88C194.45 238.872 194.438 238.84 194.373 238.775C194.308 238.688 194.234 238.608 194.152 238.537C193.882 238.293 193.545 238.137 193.185 238.09C192.825 238.042 192.459 238.105 192.135 238.271C192.036 238.318 191.943 238.376 191.857 238.444C191.76 238.509 191.736 238.537 191.76 238.541Z" fill="white"/>
<path d="M190.99 236.105C191.358 236.833 191.77 237.537 192.224 238.214C192.054 237.844 191.858 237.485 191.639 237.142C191.443 236.784 191.227 236.438 190.99 236.105Z" fill="white"/>
<path d="M194.785 238.033C195.061 237.941 195.325 237.815 195.571 237.658C195.827 237.518 196.066 237.347 196.281 237.15C196.281 237.15 195.946 237.351 195.535 237.597C195.123 237.843 194.773 238.013 194.785 238.033Z" fill="white"/>
<path d="M193.776 238.634C193.776 238.654 193.845 238.686 193.926 238.743C194.006 238.799 194.067 238.856 194.083 238.844C194.099 238.831 194.059 238.747 193.966 238.682C193.873 238.618 193.776 238.614 193.776 238.634Z" fill="white"/>
<path d="M193.123 238.392C193.123 238.412 193.184 238.444 193.268 238.468C193.353 238.493 193.426 238.489 193.434 238.468C193.442 238.448 193.373 238.416 193.289 238.392C193.204 238.368 193.131 238.372 193.123 238.392Z" fill="white"/>
<path d="M192.458 238.505C192.458 238.505 192.539 238.477 192.631 238.456C192.724 238.436 192.797 238.456 192.805 238.428C192.813 238.4 192.728 238.364 192.615 238.388C192.502 238.412 192.442 238.493 192.458 238.505Z" fill="white"/>
<path d="M192.014 238.634C192.014 238.654 192.063 238.662 192.115 238.654C192.167 238.646 192.204 238.622 192.204 238.602C192.204 238.581 192.155 238.573 192.103 238.581C192.05 238.589 192.01 238.614 192.014 238.634Z" fill="white"/>
<path d="M159.534 170.258C159.337 170.258 157.171 176.678 159.256 180.933C159.466 181.36 161.099 183.703 161.099 183.703C166.87 190.515 172.717 203.718 174.347 207.186C177.698 214.304 190.038 237.71 190.038 237.71L197.967 233.173L186.376 203.371L175.855 176.476L159.534 170.258Z" fill="white"/>
<path d="M173.83 197.79C173.83 197.79 174.391 200.504 174.681 200.342C175.508 199.899 181.182 197.782 181.182 197.782L179.65 196.084L173.83 197.79Z" fill="#373737"/>
<path d="M175.508 199.899C175.508 199.899 176.569 204.266 177.928 204.024C179.287 203.782 182.15 202.355 182.15 202.355L180.428 198.044L175.508 199.899Z" fill="#373737"/>
<path opacity="0.2" d="M175.504 199.899L180.436 198.044L180.714 198.737L175.694 200.576L175.504 199.899Z" fill="#373737"/>
<path d="M164.587 187.684C164.707 187.876 164.812 188.077 164.902 188.284C165.107 188.688 165.374 189.264 165.708 189.938C166.41 191.361 167.346 193.269 168.382 195.378C169.418 197.487 170.366 199.435 171.003 200.851C171.326 201.56 171.576 202.133 171.745 202.536C171.84 202.74 171.921 202.95 171.987 203.165C171.863 202.977 171.757 202.777 171.669 202.569C171.467 202.145 171.197 201.589 170.862 200.915C170.16 199.492 169.225 197.584 168.188 195.471C167.152 193.358 166.208 191.414 165.567 189.998C165.249 189.293 164.994 188.716 164.825 188.317C164.726 188.113 164.647 187.902 164.587 187.684Z" fill="#373737"/>
<path d="M197.374 231.786C197.398 231.839 195.571 232.81 193.284 233.956C190.998 235.101 189.131 235.972 189.102 235.936C189.074 235.9 190.909 234.916 193.192 233.77C195.474 232.625 197.35 231.734 197.374 231.786Z" fill="#373737"/>
<path d="M168.564 142.581C168.564 142.581 161.708 139.834 161.131 140.222C160.554 140.609 156.881 146.618 160.28 147.114C163.68 147.61 168.939 143.424 168.939 143.424L168.564 142.581Z" fill="#FFC100"/>
<path d="M168.289 142.803C168.213 142.879 168.125 142.942 168.027 142.988C167.775 143.13 167.503 143.233 167.221 143.295C166.266 143.48 165.278 143.357 164.398 142.944C163.531 142.527 162.735 141.974 162.043 141.306C161.737 141.056 161.459 140.772 161.216 140.46C161.541 140.681 161.85 140.926 162.139 141.194C162.847 141.815 163.635 142.339 164.482 142.75C165.33 143.149 166.277 143.289 167.205 143.153C167.575 143.066 167.938 142.949 168.289 142.803Z" fill="white"/>
<path d="M189.675 156.171L190.26 154.961C190.666 154.324 191.009 153.649 191.284 152.945C191.426 152.593 191.506 152.219 191.522 151.84C191.563 151.371 191.537 150.899 191.446 150.437C191.321 150.033 191.764 149.67 192.079 149.908C192.393 150.146 192.768 151.276 192.579 152.659C192.389 154.042 193.994 152.542 194.595 152.005L196.091 157.151L192.357 159.656L189.675 156.171Z" fill="#E6BBAC"/>
<path d="M174.351 143.327C173.915 143.327 173.399 146.476 172.963 152.13C172.467 158.547 172.508 165.035 174.286 169.096C174.451 169.532 174.701 169.93 175.021 170.268C175.341 170.607 175.724 170.879 176.149 171.068C180.743 172.964 193.414 159.373 193.414 159.373L190.296 153.901L181.372 161.107C181.372 161.107 180.48 153.816 180.654 150.457C180.783 147.912 178.234 143.355 174.351 143.327Z" fill="#FFC100"/>
<g opacity="0.2">
<path opacity="0.2" d="M174.351 143.327C173.915 143.327 173.399 146.476 172.963 152.13C172.467 158.547 172.508 165.035 174.286 169.096C174.451 169.532 174.701 169.93 175.021 170.268C175.341 170.607 175.724 170.879 176.149 171.068C180.743 172.964 193.414 159.373 193.414 159.373L190.296 153.901L181.372 161.107C181.372 161.107 180.48 153.816 180.654 150.457C180.783 147.912 178.234 143.355 174.351 143.327Z" fill="#373737"/>
</g>
<path d="M180.033 186.764L184.106 185.409L178.379 146.65L176.113 177.698L180.033 186.764Z" fill="#FFC100"/>
<path opacity="0.2" d="M180.033 186.764L184.106 185.409L178.379 146.65L176.113 177.698L180.033 186.764Z" fill="#373737"/>
<path d="M182.711 175.952C182.647 175.747 182.603 175.536 182.577 175.323C182.505 174.92 182.412 174.327 182.299 173.593C182.081 172.133 181.815 170.109 181.589 167.862C181.364 165.616 181.226 163.58 181.146 162.104C181.11 161.366 181.085 160.769 181.073 160.353C181.053 160.14 181.053 159.925 181.073 159.712C181.115 159.922 181.141 160.135 181.15 160.349C181.186 160.797 181.235 161.386 181.291 162.091C181.408 163.567 181.569 165.6 181.795 167.842C182.021 170.084 182.263 172.109 182.444 173.573C182.529 174.279 182.602 174.863 182.654 175.311C182.69 175.523 182.709 175.737 182.711 175.952Z" fill="white"/>
<path d="M191.946 160.906C191.722 160.678 191.526 160.425 191.361 160.152C191.022 159.664 190.579 158.982 190.115 158.208C189.651 157.434 189.256 156.72 188.986 156.191C188.816 155.917 188.681 155.623 188.582 155.316C188.781 155.568 188.955 155.838 189.103 156.123C189.445 156.7 189.845 157.365 190.28 158.103L191.49 160.075C191.669 160.336 191.822 160.614 191.946 160.906Z" fill="white"/>
<path d="M178.315 149.912C177.854 149.965 177.39 149.98 176.928 149.957H176.786L176.847 149.828C176.944 149.606 177.053 149.38 177.157 149.142L177.234 148.981L177.339 149.13L177.597 149.501L177.653 149.582H177.472L177.988 148.545L178.117 148.287L178.162 148.57C178.25 149.008 178.301 149.453 178.315 149.9C178.179 149.474 178.067 149.041 177.98 148.602L178.153 148.626L177.661 149.674L177.581 149.836L177.48 149.687L177.424 149.61C177.339 149.481 177.25 149.356 177.169 149.235H177.347C177.23 149.469 177.121 149.695 177.012 149.908L176.932 149.775C177.395 149.798 177.856 149.844 178.315 149.912Z" fill="white"/>
<path d="M178.488 150.243C178.488 150.3 178.137 150.348 177.706 150.348C177.274 150.348 176.927 150.3 176.927 150.243C176.927 150.187 177.278 150.134 177.706 150.134C178.133 150.134 178.488 150.183 178.488 150.243Z" fill="white"/>
<path d="M165.882 144.133C165.882 144.133 161.829 145.989 159.833 149.033C157.836 152.078 158.861 179.207 158.861 179.207L178.109 179.82C178.109 179.82 176.496 144.097 175.512 143.71C173.04 142.718 169.983 142.718 165.882 144.133Z" fill="#7536C6"/>
<path d="M158.046 153.905C158.026 154.824 156.57 187.946 156.57 187.946L172.169 187.921L168.068 143.367C168.068 143.367 158.248 144.96 158.046 153.905Z" fill="#FFC100"/>
<path d="M168.12 179.937C166.83 180.052 165.535 180.099 164.24 180.078C162.946 180.126 161.649 180.103 160.357 180.009C161.647 179.893 162.942 179.846 164.236 179.868C165.531 179.822 166.828 179.845 168.12 179.937Z" fill="white"/>
<path d="M170.177 187.825C170.146 187.616 170.13 187.406 170.128 187.196C170.128 186.752 170.092 186.171 170.068 185.474C170.015 184.022 169.935 182.013 169.806 179.799C169.677 177.585 169.519 175.585 169.402 174.133C169.346 173.44 169.298 172.863 169.265 172.419C169.236 172.21 169.227 171.998 169.237 171.786C169.292 171.991 169.329 172.2 169.346 172.411C169.402 172.815 169.471 173.399 169.548 174.121C169.705 175.569 169.882 177.569 170.015 179.787C170.148 182.005 170.201 184.014 170.213 185.47C170.213 186.199 170.213 186.788 170.213 187.192C170.221 187.403 170.209 187.615 170.177 187.825Z" fill="white"/>
<path d="M170.568 181.175C170.54 181.175 170.661 181.017 170.891 181.102C170.968 181.126 171.037 181.174 171.085 181.239C171.134 181.304 171.16 181.384 171.16 181.465C171.16 181.546 171.134 181.626 171.085 181.691C171.037 181.756 170.968 181.804 170.891 181.828C170.809 181.866 170.717 181.875 170.629 181.855C170.541 181.834 170.463 181.785 170.407 181.715C170.364 181.658 170.336 181.591 170.326 181.521C170.315 181.451 170.322 181.379 170.346 181.312C170.419 181.09 170.592 181.066 170.592 181.09C170.592 181.114 170.503 181.187 170.491 181.344C170.48 181.387 170.48 181.432 170.494 181.475C170.507 181.517 170.532 181.555 170.566 181.584C170.599 181.612 170.641 181.631 170.685 181.637C170.729 181.643 170.773 181.637 170.814 181.618C170.857 181.606 170.895 181.58 170.922 181.544C170.95 181.509 170.966 181.465 170.967 181.421C170.962 181.38 170.948 181.341 170.925 181.307C170.903 181.273 170.873 181.244 170.838 181.223C170.693 181.146 170.584 181.203 170.568 181.175Z" fill="white"/>
<path d="M170.124 173.331C170.124 173.359 170.048 173.403 170.031 173.528C170.015 173.653 170.088 173.803 170.257 173.746C170.289 173.737 170.317 173.72 170.339 173.696C170.361 173.671 170.376 173.642 170.383 173.61C170.389 173.577 170.386 173.544 170.375 173.513C170.363 173.483 170.344 173.456 170.318 173.436C170.229 173.347 170.132 173.359 170.124 173.331C170.116 173.303 170.229 173.218 170.402 173.331C170.463 173.363 170.513 173.413 170.545 173.474C170.576 173.536 170.589 173.605 170.58 173.673C170.571 173.742 170.542 173.806 170.496 173.857C170.45 173.908 170.389 173.944 170.322 173.96C170.258 173.987 170.187 173.993 170.119 173.978C170.051 173.963 169.99 173.928 169.942 173.877C169.895 173.826 169.865 173.762 169.856 173.693C169.846 173.624 169.858 173.554 169.89 173.492C169.983 173.299 170.128 173.303 170.124 173.331Z" fill="white"/>
<path d="M168.539 162.717C168.523 162.653 168.514 162.588 168.511 162.523C168.511 162.374 168.479 162.192 168.459 161.975C168.422 161.462 168.37 160.765 168.305 159.958C168.18 158.244 167.995 155.881 167.761 153.268C167.527 150.654 167.289 148.299 167.108 146.589C167.023 145.783 166.95 145.077 166.898 144.573C166.898 144.355 166.862 144.17 166.85 144.021C166.841 143.956 166.841 143.891 166.85 143.827C166.875 143.887 166.89 143.951 166.894 144.016C166.918 144.166 166.95 144.343 166.983 144.561C167.055 145.037 167.152 145.726 167.261 146.577C167.479 148.283 167.741 150.642 167.975 153.256C168.209 155.869 168.378 158.236 168.459 159.95C168.503 160.809 168.531 161.503 168.543 161.987C168.543 162.204 168.543 162.39 168.543 162.539C168.551 162.598 168.549 162.658 168.539 162.717Z" fill="white"/>
<path d="M168.16 143.121C167.778 143.296 167.383 143.44 166.979 143.553C166.017 143.859 165.075 144.221 164.156 144.638C163.241 145.058 162.388 145.601 161.619 146.251C161.038 146.759 160.74 147.138 160.712 147.114C160.683 147.089 160.764 147.001 160.897 146.827C161.086 146.582 161.295 146.352 161.522 146.142C162.273 145.445 163.131 144.873 164.063 144.448C164.99 144.026 165.951 143.679 166.934 143.412C167.333 143.278 167.744 143.18 168.16 143.121Z" fill="white"/>
<path d="M179.468 153.252L186.55 144.694L187.151 145.267L180.146 153.889L179.468 153.252Z" fill="white"/>
<path d="M180.033 152.8C180.033 152.8 181.15 149.638 181.4 148.961C181.65 148.283 182.077 147.114 182.247 147.085C182.416 147.057 183.053 147.134 182.287 149.15C181.521 151.167 183.275 149.896 183.275 149.896L184.816 148.134C184.816 148.134 186.36 152.247 185.622 153.498C184.996 154.495 184.29 155.439 183.509 156.321L180.033 152.8Z" fill="#E6BBAC"/>
<path d="M183.735 156.071L181.529 158.47L178.4 154.469L180.033 152.812L183.735 156.071Z" fill="#E6BBAC"/>
<path d="M161.688 146.678C161.228 146.791 158.232 149.691 158.187 155.889C158.151 160.813 158.53 171.754 161.893 173.379C163.418 174.117 165.729 174.101 167.737 172.807C173.383 169.145 183.42 157.357 183.42 157.357L178.936 152.578C178.936 152.578 167.285 164.43 166.789 163.995C166.039 163.342 166.156 157.188 165.519 151.59C165.067 147.614 164.535 145.968 161.688 146.678Z" fill="#FFC100"/>
<path d="M170.721 170.516C170.672 170.586 170.615 170.651 170.552 170.71C170.382 170.891 170.203 171.063 170.015 171.226C169.325 171.826 168.559 172.333 167.737 172.734C167.165 173.007 166.566 173.22 165.95 173.367C165.237 173.546 164.495 173.579 163.768 173.464C162.969 173.303 162.225 172.939 161.607 172.407C160.948 171.839 160.407 171.147 160.014 170.371C159.281 168.875 158.839 167.253 158.711 165.592C158.514 164.084 158.373 162.717 158.308 161.559C158.244 160.402 158.195 159.482 158.187 158.837C158.187 158.514 158.187 158.264 158.187 158.095C158.178 158.009 158.178 157.923 158.187 157.837C158.206 157.922 158.215 158.008 158.215 158.095C158.215 158.283 158.227 158.529 158.252 158.833C158.284 159.478 158.332 160.406 158.437 161.547C158.542 162.688 158.695 164.051 158.901 165.556C158.992 166.342 159.126 167.123 159.304 167.895C159.505 168.718 159.805 169.514 160.195 170.266C160.577 171.017 161.1 171.688 161.736 172.242C162.324 172.755 163.036 173.107 163.801 173.262C164.5 173.381 165.216 173.356 165.906 173.19C166.511 173.047 167.099 172.841 167.66 172.573C168.479 172.189 169.249 171.707 169.951 171.137C170.459 170.762 170.705 170.5 170.721 170.516Z" fill="white"/>
<path d="M178.936 152.578C178.872 152.668 178.802 152.753 178.726 152.832C178.581 152.989 178.371 153.235 178.089 153.53C177.532 154.131 176.706 154.982 175.669 156.026C174.633 157.071 173.358 158.297 171.931 159.656L169.668 161.769C168.862 162.491 168.055 163.253 167.156 163.987L167.003 164.112V163.906C166.975 163.471 166.946 163.007 166.922 162.539C166.781 160.091 166.648 157.76 166.519 155.635C166.446 154.574 166.434 153.562 166.329 152.631C166.251 151.765 166.02 150.92 165.648 150.134C165.339 149.49 164.871 148.935 164.289 148.521C163.841 148.219 163.326 148.032 162.788 147.977C162.328 147.934 161.863 148.001 161.433 148.174C161.536 148.108 161.647 148.057 161.764 148.021C162.096 147.909 162.447 147.866 162.797 147.896C163.352 147.938 163.887 148.12 164.353 148.424C164.963 148.841 165.455 149.407 165.781 150.07C166.171 150.868 166.416 151.73 166.503 152.614C166.616 153.558 166.636 154.57 166.708 155.631C166.837 157.752 166.975 160.067 167.112 162.535C167.136 163.003 167.164 163.467 167.188 163.902L167.023 163.822C168.769 162.366 170.35 160.853 171.794 159.523C173.237 158.192 174.504 156.962 175.56 155.933C176.617 154.905 177.46 154.07 178.032 153.485L178.694 152.8C178.769 152.72 178.849 152.646 178.936 152.578Z" fill="white"/>
<path d="M181.44 159.337C181.184 159.135 180.951 158.905 180.747 158.651C180.343 158.212 179.787 157.595 179.186 156.905C178.585 156.216 178.049 155.583 177.67 155.115C177.446 154.877 177.252 154.615 177.089 154.332C177.343 154.534 177.574 154.763 177.778 155.014C178.182 155.458 178.742 156.075 179.343 156.768C179.944 157.462 180.48 158.091 180.86 158.559C181.081 158.796 181.276 159.057 181.44 159.337Z" fill="white"/>
<path d="M166.019 166.673C166.158 165.656 166.523 164.683 167.088 163.826C166.967 164.32 166.801 164.802 166.592 165.265C166.445 165.751 166.253 166.222 166.019 166.673Z" fill="white"/>
<path d="M165.011 165.882C165.665 165.097 166.423 164.405 167.265 163.826C166.966 164.241 166.61 164.613 166.208 164.931C165.853 165.3 165.451 165.62 165.011 165.882Z" fill="white"/>
<path d="M183.291 157.639C183.059 157.416 182.848 157.172 182.662 156.909C182.287 156.446 181.767 155.816 181.166 155.139C180.565 154.461 179.996 153.873 179.581 153.449C179.342 153.233 179.123 152.996 178.928 152.739C179.205 152.906 179.46 153.108 179.686 153.34C180.259 153.865 180.804 154.42 181.319 155.002C181.838 155.58 182.325 156.186 182.779 156.817C182.984 157.068 183.157 157.344 183.291 157.639Z" fill="white"/>
<path d="M191.699 144.331C191.699 144.331 198.027 177.723 198.031 178.045C198.035 178.368 197.547 205.674 197.995 210.041C198.442 214.409 200.519 240.812 200.519 240.812H201.842L200.176 195.886L200.136 174.577L194.829 147.936L191.699 144.331Z" fill="white"/>
<path d="M200.499 210.84C200.531 210.84 200.422 211.32 200.31 212.094C200.164 213.099 200.109 214.116 200.144 215.131C200.186 216.148 200.321 217.159 200.547 218.151C200.717 218.913 200.862 219.361 200.83 219.385C200.767 219.29 200.719 219.185 200.689 219.075C200.578 218.783 200.483 218.485 200.402 218.184C200.134 217.189 199.98 216.168 199.943 215.139C199.904 214.111 199.98 213.081 200.168 212.07C200.245 211.667 200.322 211.372 200.386 211.162C200.451 210.953 200.483 210.836 200.499 210.84Z" fill="#373737"/>
<path d="M193.486 159.466C193.229 159.28 193.009 159.048 192.837 158.781C192.392 158.169 192.001 157.52 191.667 156.841C191.264 156.058 190.897 155.345 190.647 154.824C190.493 154.551 190.37 154.262 190.28 153.961C190.475 154.211 190.643 154.482 190.78 154.768C191.062 155.272 191.446 155.978 191.853 156.756C192.187 157.426 192.556 158.077 192.958 158.708C193.276 159.176 193.51 159.446 193.486 159.466Z" fill="white"/>
<path d="M194.482 159.619C194.531 159.661 194.574 159.709 194.611 159.761L194.954 160.2C195.244 160.603 195.664 161.14 196.14 161.862C196.706 162.701 197.188 163.594 197.579 164.527C198.046 165.681 198.292 166.912 198.305 168.157C198.305 170.786 198.281 173.157 198.261 174.879C198.241 175.714 198.229 176.404 198.217 176.896C198.217 177.118 198.217 177.299 198.196 177.452C198.198 177.518 198.19 177.583 198.172 177.646C198.164 177.582 198.164 177.517 198.172 177.452C198.172 177.299 198.172 177.118 198.172 176.896C198.172 176.384 198.172 175.686 198.148 174.879C198.148 173.129 198.148 170.77 198.148 168.161C198.137 166.936 197.902 165.724 197.454 164.584C197.075 163.657 196.61 162.768 196.067 161.926C195.607 161.2 195.208 160.628 194.938 160.232C194.772 160.039 194.619 159.834 194.482 159.619Z" fill="#373737"/>
<path d="M200.116 191.704C200.085 191.642 200.065 191.575 200.056 191.507C200.023 191.349 199.979 191.16 199.926 190.93C199.822 190.426 199.672 189.7 199.503 188.797C199.041 186.446 198.718 184.071 198.535 181.683C198.348 179.288 198.45 176.879 198.838 174.508C198.958 173.792 199.118 173.082 199.318 172.383C199.382 172.133 199.451 171.944 199.491 171.815C199.51 171.749 199.535 171.685 199.568 171.625C199.526 171.888 199.468 172.148 199.394 172.403C199.277 172.899 199.124 173.613 198.991 174.533C198.653 176.895 198.573 179.287 198.753 181.667C198.942 184.457 199.358 186.962 199.656 188.768C199.805 189.652 199.926 190.382 200.015 190.914C200.051 191.148 200.084 191.341 200.108 191.499C200.119 191.567 200.122 191.636 200.116 191.704Z" fill="#373737"/>
<path d="M197.991 208.118C197.983 208.051 197.983 207.983 197.991 207.916C197.988 207.722 198 207.528 198.027 207.335C198.142 206.631 198.352 205.946 198.652 205.299C199.114 204.361 199.518 203.395 199.862 202.407C200.16 201.167 200.21 199.88 200.007 198.62C199.838 197.269 199.676 195.979 199.531 194.801C199.386 193.624 199.277 192.559 199.128 191.688C199.045 190.991 198.773 190.33 198.342 189.777C198.165 189.592 197.965 189.429 197.749 189.293C197.814 189.312 197.878 189.338 197.938 189.369C198.11 189.462 198.266 189.58 198.402 189.72C198.87 190.27 199.172 190.941 199.273 191.656C199.443 192.547 199.555 193.604 199.721 194.777C199.886 195.951 200.056 197.237 200.217 198.6C200.423 199.885 200.366 201.198 200.047 202.46C199.7 203.453 199.285 204.422 198.805 205.359C198.497 205.991 198.268 206.659 198.124 207.347C198.007 207.839 198.015 208.118 197.991 208.118Z" fill="#373737"/>
<path d="M198.043 194.011C198.107 194.115 198.156 194.228 198.188 194.346C198.303 194.658 198.398 194.977 198.475 195.301C198.729 196.37 198.841 197.467 198.809 198.564C198.776 199.658 198.597 200.743 198.277 201.79C198.182 202.107 198.069 202.418 197.938 202.722C197.898 202.837 197.842 202.947 197.773 203.048C197.737 203.048 197.922 202.552 198.136 201.746C198.689 199.647 198.755 197.45 198.329 195.322C198.164 194.515 198.011 194.023 198.043 194.011Z" fill="#373737"/>
<path d="M200.596 227.298C200.586 227.22 200.586 227.141 200.596 227.064C200.596 226.89 200.628 226.66 200.652 226.402C200.715 225.597 200.708 224.787 200.632 223.983C200.574 223.428 200.463 222.879 200.301 222.345C200.101 221.734 199.863 221.136 199.588 220.555C199.283 219.906 199.014 219.241 198.781 218.563C198.545 217.823 198.388 217.061 198.313 216.288C198.186 214.806 198.266 213.313 198.551 211.852C198.779 210.662 199.069 209.484 199.418 208.323C199.713 207.331 199.963 206.533 200.136 205.98L200.334 205.347C200.352 205.271 200.38 205.198 200.418 205.129C200.414 205.208 200.399 205.285 200.374 205.359C200.334 205.529 200.277 205.742 200.213 206.005C200.051 206.589 199.834 207.388 199.563 208.364C199.293 209.34 198.975 210.545 198.757 211.888C198.488 213.337 198.415 214.816 198.539 216.284C198.61 217.041 198.762 217.789 198.991 218.514C199.224 219.187 199.493 219.847 199.797 220.49C200.069 221.081 200.303 221.689 200.499 222.309C200.66 222.855 200.765 223.416 200.814 223.983C200.878 224.801 200.862 225.624 200.765 226.439C200.729 226.725 200.697 226.947 200.668 227.1C200.652 227.169 200.628 227.235 200.596 227.298Z" fill="#373737"/>
<path d="M201.318 226.443C201.378 226.467 200.882 227.709 200.564 229.318C200.245 230.927 200.209 232.266 200.16 232.266C200.106 231.976 200.094 231.68 200.124 231.387C200.177 229.968 200.459 228.566 200.959 227.237C201.041 226.957 201.161 226.689 201.318 226.443Z" fill="#373737"/>
<path d="M198.019 161.531C198.019 161.531 197.902 161.418 197.724 161.188C197.547 160.958 197.297 160.615 197.003 160.184C195.484 157.923 194.281 155.466 193.426 152.881C193.264 152.385 193.147 151.981 193.075 151.699C193.027 151.555 192.996 151.406 192.982 151.255C193.053 151.383 193.109 151.519 193.151 151.659C193.264 151.973 193.405 152.36 193.555 152.816C194.019 154.086 194.549 155.331 195.144 156.546C195.739 157.76 196.398 158.942 197.116 160.087L197.781 161.124C197.877 161.249 197.957 161.386 198.019 161.531Z" fill="#373737"/>
<path d="M196.519 152.143C196.274 151.939 196.051 151.711 195.853 151.461L194.325 149.759L192.8 148.057C192.574 147.833 192.371 147.586 192.196 147.319C192.456 147.502 192.694 147.714 192.905 147.952C193.309 148.356 193.885 148.953 194.482 149.618C195.079 150.283 195.599 150.905 195.966 151.364C196.179 151.603 196.364 151.864 196.519 152.143Z" fill="#373737"/>
<path d="M195.962 152.187C195.962 152.187 194.131 154.953 194.845 155.082C195.559 155.212 196.636 152.897 196.563 152.53C196.491 152.163 195.962 152.187 195.962 152.187Z" fill="#E6BBAC"/>
<path d="M196.37 153.401C196.37 153.401 194.543 156.167 195.257 156.3C195.97 156.433 197.043 154.115 196.975 153.748C196.906 153.381 196.37 153.401 196.37 153.401Z" fill="#E6BBAC"/>
<path d="M196.91 155.086C196.91 155.086 195.079 157.853 195.793 157.982C196.507 158.111 197.584 155.796 197.511 155.429C197.438 155.062 196.91 155.086 196.91 155.086Z" fill="#E6BBAC"/>
<path d="M166.301 131.975C166.604 133.894 166.587 135.576 165.652 136.814C165.448 137.054 165.259 137.308 165.087 137.572C165.003 137.706 164.946 137.855 164.921 138.011C164.897 138.167 164.904 138.326 164.942 138.479C164.987 138.614 165.067 138.734 165.174 138.828C165.28 138.921 165.409 138.985 165.548 139.013C165.687 139.041 165.831 139.032 165.966 138.986C166.1 138.941 166.22 138.86 166.313 138.754C166.282 138.971 166.317 139.192 166.413 139.39C166.508 139.587 166.66 139.752 166.85 139.863C166.946 139.908 167.052 139.931 167.159 139.929C167.266 139.928 167.371 139.902 167.466 139.853C167.561 139.804 167.643 139.734 167.707 139.649C167.771 139.563 167.814 139.464 167.834 139.359C167.834 139.359 167.584 140.326 168.697 140.165L167.914 133.495L166.301 131.975Z" fill="white"/>
<path d="M171.318 146.714C171.754 146.716 172.186 146.625 172.585 146.449C172.984 146.272 173.341 146.013 173.634 145.69C173.926 145.366 174.147 144.984 174.283 144.57C174.418 144.155 174.464 143.716 174.419 143.283C174.314 142.286 174.226 141.476 174.226 141.476C174.226 141.476 176.682 141.093 176.71 138.653C176.738 136.213 176.307 130.559 176.307 130.559C174.911 129.959 173.381 129.742 171.873 129.931C170.366 130.121 168.937 130.709 167.733 131.636L167.366 131.918L168.221 143.847C168.281 144.627 168.633 145.356 169.207 145.888C169.782 146.419 170.535 146.715 171.318 146.714Z" fill="#E6BBAC"/>
<path d="M175.657 134.979C175.606 134.932 175.569 134.87 175.553 134.802C175.536 134.734 175.54 134.663 175.564 134.597C175.588 134.531 175.63 134.474 175.687 134.432C175.743 134.391 175.81 134.367 175.88 134.363C175.95 134.36 176.02 134.377 176.08 134.413C176.14 134.449 176.188 134.502 176.218 134.565C176.248 134.629 176.259 134.699 176.249 134.769C176.239 134.838 176.208 134.903 176.161 134.955C176.097 135.024 176.009 135.066 175.914 135.07C175.82 135.075 175.728 135.042 175.657 134.979Z" fill="white"/>
<path d="M176.339 134.201C176.298 134.245 176.056 134.06 175.722 134.06C175.387 134.06 175.137 134.233 175.097 134.189C175.056 134.144 175.117 134.092 175.226 134.011C175.369 133.905 175.542 133.848 175.72 133.848C175.898 133.848 176.071 133.905 176.214 134.011C176.319 134.108 176.355 134.185 176.339 134.201Z" fill="white"/>
<path d="M172.439 134.713C172.499 134.75 172.547 134.803 172.576 134.867C172.605 134.931 172.615 135.002 172.604 135.071C172.593 135.14 172.562 135.205 172.514 135.256C172.466 135.308 172.405 135.344 172.336 135.361C172.268 135.377 172.196 135.373 172.131 135.348C172.065 135.324 172.008 135.281 171.966 135.224C171.925 135.167 171.902 135.099 171.899 135.029C171.896 134.959 171.914 134.89 171.951 134.83C171.975 134.79 172.007 134.755 172.045 134.727C172.082 134.699 172.125 134.68 172.17 134.669C172.216 134.658 172.263 134.656 172.309 134.664C172.355 134.671 172.399 134.688 172.439 134.713Z" fill="white"/>
<path d="M172.665 134.499C172.625 134.543 172.383 134.358 172.048 134.354C171.713 134.35 171.463 134.527 171.427 134.487C171.391 134.447 171.427 134.39 171.552 134.31C171.695 134.204 171.87 134.148 172.048 134.152C172.226 134.153 172.399 134.212 172.54 134.322C172.645 134.402 172.681 134.483 172.665 134.499Z" fill="white"/>
<path d="M174.016 137.29C174.191 137.221 174.376 137.181 174.564 137.173C174.653 137.173 174.722 137.145 174.726 137.096C174.729 137.009 174.708 136.922 174.665 136.846L174.395 136.157C174.141 135.576 173.948 134.97 173.818 134.35C174.128 134.903 174.382 135.485 174.576 136.088C174.665 136.33 174.746 136.556 174.83 136.782C174.887 136.895 174.904 137.024 174.879 137.149C174.866 137.183 174.846 137.213 174.819 137.238C174.793 137.262 174.76 137.28 174.726 137.29C174.677 137.305 174.627 137.312 174.576 137.31C174.39 137.336 174.2 137.329 174.016 137.29Z" fill="white"/>
<path d="M172.923 137.665C172.568 137.455 173.891 138.181 174.581 138.145C174.466 138.323 174.294 138.457 174.093 138.525C173.893 138.593 173.675 138.591 173.476 138.52C172.742 138.25 172.923 137.665 172.923 137.665Z" fill="white"/>
<path d="M174.222 141.44C173.087 141.46 171.973 141.143 171.02 140.528C171.02 140.528 171.774 142.299 174.226 142.077L174.222 141.44Z" fill="#D88876"/>
<path d="M167.362 134.277C167.309 134.277 165.531 134.14 165.825 136.209C166.12 138.278 168.116 137.298 168.108 137.237C168.1 137.177 167.362 134.277 167.362 134.277Z" fill="#E6BBAC"/>
<path d="M167.374 136.6C167.374 136.6 167.338 136.632 167.281 136.669C167.202 136.718 167.106 136.734 167.015 136.713C166.869 136.647 166.744 136.543 166.651 136.413C166.558 136.283 166.502 136.13 166.487 135.971C166.456 135.794 166.466 135.612 166.515 135.439C166.526 135.372 166.552 135.308 166.592 135.254C166.632 135.199 166.684 135.155 166.745 135.124C166.785 135.108 166.83 135.106 166.872 135.119C166.913 135.131 166.95 135.157 166.975 135.193C167.011 135.249 167.003 135.29 167.015 135.294C167.027 135.298 167.051 135.253 167.015 135.169C166.998 135.118 166.961 135.076 166.914 135.052C166.884 135.033 166.849 135.022 166.814 135.018C166.779 135.013 166.743 135.017 166.709 135.027C166.626 135.056 166.552 135.106 166.494 135.171C166.436 135.237 166.396 135.317 166.378 135.402C166.314 135.593 166.299 135.797 166.333 135.995C166.352 136.179 166.424 136.353 166.54 136.496C166.656 136.639 166.811 136.746 166.987 136.802C167.045 136.809 167.103 136.804 167.159 136.787C167.215 136.769 167.266 136.74 167.309 136.701C167.374 136.669 167.378 136.604 167.374 136.6Z" fill="#D88876"/>
<path d="M176.948 130.305C176.911 130.097 176.794 129.911 176.622 129.788C176.45 129.665 176.237 129.615 176.028 129.648C176.168 129.634 176.302 129.589 176.422 129.515C176.541 129.441 176.642 129.341 176.717 129.223C176.792 129.104 176.838 128.97 176.853 128.83C176.868 128.691 176.851 128.55 176.803 128.418C176.755 128.286 176.678 128.167 176.577 128.07C176.475 127.973 176.354 127.9 176.22 127.857C176.086 127.814 175.945 127.802 175.806 127.823C175.667 127.843 175.535 127.895 175.419 127.974C175.696 127.714 175.915 127.4 176.064 127.051C176.136 126.874 176.151 126.68 176.109 126.495C176.066 126.309 175.968 126.142 175.827 126.014C175.667 125.917 175.483 125.866 175.296 125.866C175.109 125.866 174.926 125.917 174.766 126.014C174.258 126.264 173.875 126.732 173.354 126.95C172.834 127.167 172.229 127.111 171.661 127.172C171.024 127.224 170.421 127.475 169.935 127.889C169.696 128.099 169.51 128.361 169.391 128.655C169.272 128.949 169.224 129.267 169.249 129.583C168.475 129.535 167.636 129.583 167.027 130.063C167.072 129.751 167.033 129.433 166.914 129.141C166.796 128.85 166.603 128.594 166.354 128.402C166.035 128.179 165.665 128.043 165.279 128.005C164.893 127.966 164.503 128.028 164.148 128.184C163.978 128.243 163.823 128.336 163.692 128.458C163.56 128.581 163.456 128.729 163.385 128.894C163.337 129.138 163.36 129.392 163.452 129.624C163.543 129.857 163.699 130.058 163.902 130.204C164.253 130.502 164.67 130.713 165.118 130.821C165.567 130.929 166.034 130.93 166.483 130.825C166.339 131.191 166.279 131.583 166.305 131.975C166.345 132.652 166.89 133.354 167.112 133.991L167.164 134.394L167.567 136.128L168.652 136.04L168.358 132.41C168.358 132.41 168.152 130.882 169.487 130.934C170.822 130.987 172.713 132.37 175.266 131.833C175.685 131.789 176.089 131.651 176.448 131.43C176.626 131.306 176.767 131.136 176.855 130.938C176.943 130.739 176.975 130.52 176.948 130.305Z" fill="white"/>
<path d="M162.643 131.906C162.643 131.874 162.922 132.003 163.377 132.071C163.965 132.163 164.567 132.075 165.103 131.817C165.636 131.549 166.075 131.128 166.366 130.607C166.587 130.204 166.648 129.918 166.68 129.926C166.69 130.187 166.625 130.446 166.495 130.672C166.229 131.253 165.771 131.724 165.198 132.006C164.624 132.287 163.971 132.362 163.349 132.217C163.09 132.179 162.846 132.072 162.643 131.906Z" fill="white"/>
<path d="M165.249 133.93C165.224 133.93 165.14 133.725 165.176 133.37C165.239 132.917 165.403 132.484 165.656 132.104C165.93 131.656 166.204 131.297 166.362 130.987C166.435 130.819 166.525 130.658 166.628 130.507C166.656 130.507 166.628 130.728 166.495 131.051C166.304 131.454 166.083 131.843 165.833 132.213C165.596 132.574 165.423 132.974 165.321 133.394C165.253 133.713 165.281 133.926 165.249 133.93Z" fill="white"/>
<path d="M167.213 129.813C167.265 129.813 167.184 130.196 166.89 130.543C166.596 130.89 166.245 131.027 166.221 130.978C166.196 130.93 166.467 130.72 166.729 130.406C166.991 130.091 167.16 129.813 167.213 129.813Z" fill="#FFC100"/>
</g>
<defs>
<filter id="filter0_d_0_232" x="0" y="0" width="359.096" height="338.908" filterUnits="userSpaceOnUse" color-interpolation-filters="sRGB">
<feFlood flood-opacity="0" result="BackgroundImageFix"/>
<feColorMatrix in="SourceAlpha" type="matrix" values="0 0 0 0 0 0 0 0 0 0 0 0 0 0 0 0 0 0 127 0" result="hardAlpha"/>
<feOffset dx="4" dy="4"/>
<feGaussianBlur stdDeviation="47"/>
<feColorMatrix type="matrix" values="0 0 0 0 0.635793 0 0 0 0 0.385642 0 0 0 0 0.954167 0 0 0 0.3 0"/>
<feBlend mode="normal" in2="BackgroundImageFix" result="effect1_dropShadow_0_232"/>
<feBlend mode="normal" in="SourceGraphic" in2="effect1_dropShadow_0_232" result="shape"/>
</filter>
</defs>
</svg>
